# Blender 4.4.3
# www.blender.org
mtllib text_ru.mtl
o ル
v -1.856140 -0.211228 -0.110000
v -1.818421 -0.160877 -0.110000
v -1.855263 -0.160877 -0.110000
v -2.019298 0.055263 -0.110000
v -2.100877 0.055263 -0.110000
v -1.898246 -0.211228 -0.110000
v -2.203509 0.233333 -0.110000
v -2.203509 -0.120351 -0.110000
v -2.313158 0.023947 -0.110000
v -2.394737 0.023947 -0.110000
v -2.215790 -0.211228 -0.110000
v -2.131579 -0.211228 -0.110000
v -2.131579 0.233333 -0.110000
v -1.856140 -0.211228 0.110000
v -1.818421 -0.160877 0.110000
v -1.855263 -0.160877 0.110000
v -2.019298 0.055263 0.110000
v -2.100877 0.055263 0.110000
v -1.898246 -0.211228 0.110000
v -2.203509 0.233333 0.110000
v -2.203509 -0.120351 0.110000
v -2.313158 0.023947 0.110000
v -2.394737 0.023947 0.110000
v -2.215790 -0.211228 0.110000
v -2.131579 -0.211228 0.110000
v -2.131579 0.233333 0.110000
v -2.203509 0.233333 0.110000
v -2.206599 0.235496 0.109511
v -2.209387 0.237448 0.108090
v -2.211599 0.238996 0.105878
v -2.213019 0.239991 0.103090
v -2.213509 0.240333 0.100000
v -2.213509 0.240333 -0.100000
v -2.213019 0.239991 -0.103090
v -2.211599 0.238996 -0.105878
v -2.209387 0.237448 -0.108090
v -2.206599 0.235496 -0.109511
v -2.203509 0.233333 -0.110000
v -2.203509 -0.120351 0.110000
v -2.206599 -0.111678 0.109511
v -2.209387 -0.103854 0.108090
v -2.211599 -0.097645 0.105878
v -2.213019 -0.093659 0.103090
v -2.213509 -0.092285 0.100000
v -2.213509 -0.092285 -0.100000
v -2.213019 -0.093659 -0.103090
v -2.211599 -0.097645 -0.105878
v -2.209387 -0.103854 -0.108090
v -2.206599 -0.111678 -0.109511
v -2.203509 -0.120351 -0.110000
v -2.313158 0.023947 0.110000
v -2.311302 0.026111 0.109511
v -2.309627 0.028062 0.108090
v -2.308298 0.029611 0.105878
v -2.307445 0.030605 0.103090
v -2.307151 0.030947 0.100000
v -2.307151 0.030947 -0.100000
v -2.307445 0.030605 -0.103090
v -2.308298 0.029611 -0.105878
v -2.309627 0.028062 -0.108090
v -2.311302 0.026111 -0.109511
v -2.313158 0.023947 -0.110000
v -2.394737 0.023947 0.110000
v -2.399884 0.026111 0.109511
v -2.404527 0.028062 0.108090
v -2.408212 0.029611 0.105878
v -2.410578 0.030605 0.103090
v -2.411393 0.030947 0.100000
v -2.411393 0.030947 -0.100000
v -2.410578 0.030605 -0.103090
v -2.408212 0.029611 -0.105878
v -2.404527 0.028062 -0.108090
v -2.399884 0.026111 -0.109511
v -2.394737 0.023947 -0.110000
v -2.215790 -0.211228 0.110000
v -2.217645 -0.213391 0.109511
v -2.219318 -0.215343 0.108090
v -2.220647 -0.216891 0.105878
v -2.221499 -0.217885 0.103090
v -2.221793 -0.218228 0.100000
v -2.221793 -0.218228 -0.100000
v -2.221499 -0.217885 -0.103090
v -2.220647 -0.216891 -0.105878
v -2.219318 -0.215343 -0.108090
v -2.217645 -0.213391 -0.109511
v -2.215790 -0.211228 -0.110000
v -2.131579 -0.211228 0.110000
v -2.128489 -0.213391 0.109511
v -2.125701 -0.215343 0.108090
v -2.123489 -0.216891 0.105878
v -2.122068 -0.217885 0.103090
v -2.121579 -0.218228 0.100000
v -2.121579 -0.218228 -0.100000
v -2.122068 -0.217885 -0.103090
v -2.123489 -0.216891 -0.105878
v -2.125701 -0.215343 -0.108090
v -2.128489 -0.213391 -0.109511
v -2.131579 -0.211228 -0.110000
v -2.131579 0.233333 0.110000
v -2.128489 0.235496 0.109511
v -2.125701 0.237448 0.108090
v -2.123489 0.238996 0.105878
v -2.122068 0.239991 0.103090
v -2.121579 0.240333 0.100000
v -2.121579 0.240333 -0.100000
v -2.122068 0.239991 -0.103090
v -2.123489 0.238996 -0.105878
v -2.125701 0.237448 -0.108090
v -2.128489 0.235496 -0.109511
v -2.131579 0.233333 -0.110000
v -1.856140 -0.211228 0.110000
v -1.854272 -0.213391 0.109511
v -1.852586 -0.215343 0.108090
v -1.851248 -0.216891 0.105878
v -1.850389 -0.217885 0.103090
v -1.850093 -0.218228 0.100000
v -1.850093 -0.218228 -0.100000
v -1.850389 -0.217885 -0.103090
v -1.851248 -0.216891 -0.105878
v -1.852586 -0.215343 -0.108090
v -1.854272 -0.213391 -0.109511
v -1.856140 -0.211228 -0.110000
v -1.818421 -0.160877 0.110000
v -1.813311 -0.158714 0.109511
v -1.808702 -0.156763 0.108090
v -1.805044 -0.155214 0.105878
v -1.802695 -0.154220 0.103090
v -1.801886 -0.153877 0.100000
v -1.801886 -0.153877 -0.100000
v -1.802695 -0.154220 -0.103090
v -1.805044 -0.155214 -0.105878
v -1.808702 -0.156763 -0.108090
v -1.813311 -0.158714 -0.109511
v -1.818421 -0.160877 -0.110000
v -1.855263 -0.160877 0.110000
v -1.853406 -0.158714 0.109511
v -1.851730 -0.156763 0.108090
v -1.850400 -0.155214 0.105878
v -1.849546 -0.154220 0.103090
v -1.849252 -0.153877 0.100000
v -1.849252 -0.153877 -0.100000
v -1.849546 -0.154220 -0.103090
v -1.850400 -0.155214 -0.105878
v -1.851730 -0.156763 -0.108090
v -1.853406 -0.158714 -0.109511
v -1.855263 -0.160877 -0.110000
v -2.019298 0.055263 0.110000
v -2.017441 0.057426 0.109511
v -2.015765 0.059378 0.108090
v -2.014435 0.060926 0.105878
v -2.013582 0.061921 0.103090
v -2.013287 0.062263 0.100000
v -2.013287 0.062263 -0.100000
v -2.013582 0.061921 -0.103090
v -2.014435 0.060926 -0.105878
v -2.015765 0.059378 -0.108090
v -2.017441 0.057426 -0.109511
v -2.019298 0.055263 -0.110000
v -2.100877 0.055263 0.110000
v -2.106023 0.057426 0.109511
v -2.110664 0.059378 0.108090
v -2.114348 0.060926 0.105878
v -2.116713 0.061921 0.103090
v -2.117528 0.062263 0.100000
v -2.117528 0.062263 -0.100000
v -2.116713 0.061921 -0.103090
v -2.114348 0.060926 -0.105878
v -2.110664 0.059378 -0.108090
v -2.106023 0.057426 -0.109511
v -2.100877 0.055263 -0.110000
v -1.898246 -0.211228 0.110000
v -1.900101 -0.213391 0.109511
v -1.901776 -0.215343 0.108090
v -1.903104 -0.216891 0.105878
v -1.903957 -0.217885 0.103090
v -1.904251 -0.218228 0.100000
v -1.904251 -0.218228 -0.100000
v -1.903957 -0.217885 -0.103090
v -1.903104 -0.216891 -0.105878
v -1.901776 -0.215343 -0.108090
v -1.900101 -0.213391 -0.109511
v -1.898246 -0.211228 -0.110000
vn -0.0000 -0.0000 -1.0000
vn -0.0000 -0.0000 1.0000
vn -0.0109 0.0622 0.9980
vn -0.0785 0.1121 0.9906
vn -0.1941 0.2773 0.9410
vn -0.0318 0.1818 0.9828
vn -0.3387 0.4839 0.8069
vn -0.0603 0.3454 0.9365
vn -0.4612 0.6588 0.5944
vn -0.1107 0.6340 0.7653
vn -0.5442 0.7774 0.3154
vn -0.1662 0.9519 0.2574
vn -0.5714 0.8163 0.0852
vn -0.1662 0.9519 -0.2574
vn -0.5714 0.8162 -0.0852
vn -0.5442 0.7774 -0.3154
vn -0.4612 0.6588 -0.5944
vn -0.1107 0.6340 -0.7653
vn -0.3387 0.4839 -0.8069
vn -0.0603 0.3454 -0.9365
vn -0.1941 0.2773 -0.9410
vn -0.0318 0.1818 -0.9828
vn -0.0785 0.1121 -0.9906
vn -0.0109 0.0622 -0.9980
vn 0.0688 0.1636 0.9841
vn -0.0093 0.0531 0.9985
vn 0.1553 0.3693 0.9162
vn 0.2610 0.6207 0.7393
vn 0.3336 0.7932 0.5094
vn 0.3745 0.8907 0.2578
vn 0.3868 0.9197 -0.0668
vn 0.3745 0.8907 -0.2578
vn 0.3336 0.7932 -0.5094
vn 0.2610 0.6207 -0.7393
vn 0.1553 0.3693 -0.9162
vn 0.0688 0.1636 -0.9841
vn -0.0093 0.0531 -0.9985
vn -0.0696 0.0597 0.9958
vn -0.1890 0.1621 0.9685
vn -0.3473 0.2978 0.8892
vn -0.5245 0.4498 0.7229
vn 0.3868 0.9197 0.0668
vn -0.6892 0.5911 0.4191
vn -0.7534 0.6461 -0.1224
vn -0.6892 0.5911 -0.4191
vn -0.5245 0.4498 -0.7229
vn -0.3473 0.2978 -0.8892
vn -0.1890 0.1621 -0.9685
vn -0.0696 0.0597 -0.9958
vn -0.1552 -0.3694 0.9162
vn -0.2609 -0.6208 0.7392
vn -0.3334 -0.7934 0.5093
vn -0.3744 -0.8907 0.2577
vn -0.3866 -0.9198 0.0668
vn -0.7533 0.6461 0.1224
vn -0.3866 -0.9198 -0.0668
vn -0.3744 -0.8907 -0.2577
vn -0.3334 -0.7934 -0.5093
vn -0.2609 -0.6208 -0.7392
vn -0.1552 -0.3694 -0.9162
vn 0.0784 -0.1121 0.9906
vn -0.0688 -0.1637 0.9841
vn 0.1941 -0.2773 0.9410
vn 0.3387 -0.4839 0.8069
vn 0.4612 -0.6588 0.5944
vn 0.5442 -0.7774 0.3154
vn 0.5714 -0.8162 -0.0852
vn 0.5442 -0.7774 -0.3154
vn 0.4612 -0.6588 -0.5944
vn 0.3387 -0.4839 -0.8069
vn 0.1941 -0.2773 -0.9410
vn 0.0784 -0.1121 -0.9906
vn -0.0688 -0.1637 -0.9841
vn 0.1941 0.2773 0.9410
vn 0.3387 0.4839 0.8069
vn 0.4612 0.6588 0.5944
vn 0.5442 0.7774 0.3154
vn 0.5714 0.8162 0.0852
vn 0.5714 -0.8163 0.0852
vn 0.5714 0.8163 -0.0852
vn 0.4612 0.6588 -0.5944
vn 0.3387 0.4839 -0.8069
vn 0.1941 0.2773 -0.9410
vn 0.0784 0.1121 -0.9906
vn 0.0784 0.1121 0.9906
vn 0.5442 0.7774 -0.3154
vn 0.1560 -0.3684 0.9165
vn 0.0698 0.0603 0.9957
vn 0.0690 -0.1631 0.9842
vn 0.2622 -0.6194 0.7400
vn 0.1894 0.1636 0.9682
vn 0.3353 -0.7920 0.5102
vn 0.3478 0.3005 0.8881
vn 0.3766 -0.8896 0.2583
vn 0.5244 0.4531 0.7209
vn 0.3890 -0.9188 0.0670
vn 0.6877 0.5941 0.4174
vn 0.7511 0.6489 -0.1217
vn 0.3890 -0.9188 -0.0670
vn 0.6877 0.5941 -0.4174
vn 0.3766 -0.8896 -0.2583
vn 0.5244 0.4531 -0.7209
vn 0.3353 -0.7920 -0.5102
vn 0.3478 0.3005 -0.8881
vn 0.2622 -0.6194 -0.7400
vn 0.1894 0.1636 -0.9682
vn 0.1560 -0.3684 -0.9165
vn 0.0698 0.0603 -0.9957
vn 0.0690 -0.1631 -0.9842
vn 0.1137 0.2702 0.9561
vn 0.2334 0.5546 0.7987
vn 0.3203 0.7613 0.5637
vn 0.3713 0.8823 0.2893
vn 0.3869 0.9194 0.0710
vn 0.7511 0.6489 0.1217
vn 0.3869 0.9194 -0.0710
vn 0.3713 0.8823 -0.2893
vn 0.3203 0.7613 -0.5637
vn 0.2334 0.5546 -0.7987
vn 0.1137 0.2702 -0.9561
vn 0.1554 0.3692 0.9163
vn 0.2611 0.6206 0.7394
vn 0.3337 0.7931 0.5095
vn 0.3747 0.8906 0.2578
vn 0.3870 0.9197 -0.0668
vn 0.3747 0.8906 -0.2578
vn 0.3337 0.7931 -0.5095
vn 0.2611 0.6206 -0.7394
vn 0.1554 0.3692 -0.9163
vn -0.3473 0.2980 0.8892
vn -0.5245 0.4500 0.7228
vn 0.3870 0.9197 0.0668
vn -0.6891 0.5912 0.4191
vn -0.7533 0.6462 -0.1224
vn -0.6891 0.5912 -0.4191
vn -0.5245 0.4500 -0.7228
vn -0.3473 0.2980 -0.8892
vn -0.1553 -0.3694 0.9162
vn -0.2610 -0.6208 0.7393
vn -0.3335 -0.7933 0.5094
vn -0.3745 -0.8907 0.2578
vn -0.3867 -0.9198 0.0668
vn -0.7532 0.6463 0.1224
vn -0.3867 -0.9198 -0.0668
vn -0.3745 -0.8907 -0.2578
vn -0.3335 -0.7933 -0.5094
vn -0.2610 -0.6208 -0.7393
vn -0.1553 -0.3694 -0.9162
vn -0.0688 -0.1636 0.9841
vn -0.0688 -0.1636 -0.9841
vt 0.666268 0.936097
vt 0.619484 0.523033
vt 0.666268 0.523033
vt 0.619484 0.851658
vt 0.495109 0.717584
vt 0.548168 0.717584
vt 0.611497 0.936097
vt 0.860152 0.564063
vt 0.906811 0.816400
vt 0.859973 0.791470
vt 0.906811 0.535900
vt 0.882637 0.523033
vt 0.838999 0.552804
vt 0.838213 0.523033
vt 0.838213 0.936097
vt 0.791429 0.936097
vt 0.791429 0.607471
vt 0.720113 0.741546
vt 0.667054 0.741546
vt 0.783442 0.523033
vt 0.928750 0.775370
vt 0.928571 0.547963
vt 0.975409 0.523033
vt 0.975409 0.803533
vt 0.951234 0.816400
vt 0.907597 0.786628
vt 0.308175 0.486795
vt 0.133485 0.299642
vt 0.134632 0.298926
vt 0.299043 0.483238
vt 0.135869 0.298169
vt 0.289914 0.479317
vt 0.137185 0.297364
vt 0.280829 0.475151
vt 0.138534 0.296539
vt 0.271844 0.470842
vt 0.139954 0.295596
vt 0.460056 0.039511
vt 0.043642 0.256567
vt 0.041838 0.254722
vt 0.039869 0.252748
vt 0.466700 0.031660
vt 0.037736 0.250581
vt 0.473586 0.023724
vt 0.035415 0.248250
vt 0.480580 0.015789
vt 0.032876 0.245732
vt 0.487536 0.007970
vt 0.373337 0.271258
vt 0.317276 0.489903
vt 0.377552 0.264012
vt 0.382051 0.256839
vt 0.386845 0.249684
vt 0.391999 0.242520
vt 0.397537 0.218679
vt 0.399418 0.218858
vt 0.401238 0.219054
vt 0.403072 0.219281
vt 0.404881 0.219552
vt 0.406652 0.219866
vt 0.494322 0.000393
vt 0.426425 0.262544
vt 0.425217 0.260613
vt 0.423945 0.258849
vt 0.422618 0.257221
vt 0.397458 0.235182
vt 0.421236 0.255700
vt 0.415115 0.252113
vt 0.417401 0.252376
vt 0.419843 0.252606
vt 0.422406 0.252803
vt 0.425151 0.252959
vt 0.428135 0.253071
vt 0.369724 0.566702
vt 0.372868 0.566668
vt 0.376085 0.566734
vt 0.379407 0.566917
vt 0.382896 0.567233
vt 0.419719 0.254312
vt 0.471008 0.783952
vt 0.475671 0.788409
vt 0.480238 0.793040
vt 0.484828 0.797903
vt 0.489512 0.803051
vt 0.320614 0.579958
vt 0.366636 0.566827
vt 0.322545 0.585381
vt 0.324551 0.590738
vt 0.326610 0.596057
vt 0.328708 0.601368
vt 0.347314 0.771633
vt 0.345500 0.775046
vt 0.343671 0.778589
vt 0.341793 0.782205
vt 0.339843 0.785918
vt 0.337816 0.789746
vt 0.494322 0.808516
vt 0.110969 0.319397
vt 0.110092 0.318741
vt 0.109174 0.318109
vt 0.108182 0.317489
vt 0.107198 0.316885
vt 0.330856 0.606624
vt 0.015362 0.315119
vt 0.009679 0.315665
vt 0.006703 0.315864
vt 0.003616 0.316002
vt 0.000393 0.316094
vt 0.111835 0.320090
vt 0.012584 0.315397
vt 0.910861 0.226240
vt 0.625710 0.169042
vt 0.920296 0.216381
vt 0.902650 0.235362
vt 0.618226 0.181370
vt 0.895447 0.243843
vt 0.612268 0.191730
vt 0.889059 0.251874
vt 0.607393 0.200681
vt 0.883473 0.259668
vt 0.603243 0.208796
vt 0.585982 0.427538
vt 0.590540 0.430785
vt 0.586035 0.427781
vt 0.590365 0.430887
vt 0.586086 0.428018
vt 0.590196 0.430982
vt 0.586140 0.428254
vt 0.590033 0.431073
vt 0.586202 0.428499
vt 0.589871 0.431162
vt 0.586272 0.428757
vt 0.589709 0.431250
vt 0.499714 0.030708
vt 0.504023 0.058647
vt 0.508070 0.083383
vt 0.511887 0.104914
vt 0.515491 0.123814
vt 0.599487 0.216473
vt 0.584562 0.430105
vt 0.584740 0.430237
vt 0.584915 0.430365
vt 0.585086 0.430490
vt 0.585256 0.430610
vt 0.495109 0.522247
vt 0.495109 0.000393
vt 0.499173 0.515959
vt 0.502881 0.510285
vt 0.506305 0.505126
vt 0.509512 0.500369
vt 0.568872 0.445084
vt 0.569107 0.445122
vt 0.569325 0.445161
vt 0.569537 0.445204
vt 0.569746 0.445249
vt 0.569952 0.445295
vt 0.585420 0.430726
vt 0.574799 0.475729
vt 0.573569 0.472856
vt 0.572464 0.470244
vt 0.571460 0.467850
vt 0.512645 0.495825
vt 0.570538 0.465618
vt 0.571370 0.450440
vt 0.571429 0.450158
vt 0.571486 0.449875
vt 0.571543 0.449599
vt 0.571599 0.449327
vt 0.571656 0.449056
vt 0.942238 0.367564
vt 0.935926 0.365975
vt 0.929564 0.364472
vt 0.923255 0.363000
vt 0.917056 0.361471
vt 0.569704 0.463572
vt 0.590803 0.433938
vt 0.590599 0.433852
vt 0.590407 0.433771
vt 0.590223 0.433693
vt 0.590044 0.433615
vt 0.948357 0.369267
vt 0.589865 0.433539
s 0
usemtl マテリアル
f 12/1/1 7/2/1 13/3/1
f 12/1/1 8/4/1 7/2/1
f 8/4/1 10/5/1 9/6/1
f 8/4/1 11/7/1 10/5/1
f 12/1/1 11/7/1 8/4/1
f 3/8/1 5/9/1 4/10/1
f 3/8/1 6/11/1 5/9/1
f 1/12/1 3/8/1 2/13/1
f 1/12/1 6/11/1 3/8/1
f 25/14/2 26/15/2 20/16/2
f 25/14/2 20/16/2 21/17/2
f 21/17/2 22/18/2 23/19/2
f 21/17/2 23/19/2 24/20/2
f 25/14/2 21/17/2 24/20/2
f 16/21/2 17/22/2 18/23/2
f 16/21/2 18/23/2 19/24/2
f 14/25/2 15/26/2 16/21/2
f 14/25/2 16/21/2 19/24/2
s 1
f 40/27/3 27/28/4 28/29/5
f 41/30/6 28/29/5 29/31/7
f 42/32/8 29/31/7 30/33/9
f 43/34/10 30/33/9 31/35/11
f 44/36/12 31/35/11 32/37/13
f 45/38/14 32/37/13 33/39/15
f 34/40/16 45/38/14 33/39/15
f 35/41/17 46/42/18 34/40/16
f 36/43/19 47/44/20 35/41/17
f 37/45/21 48/46/22 36/43/19
f 38/47/23 49/48/24 37/45/21
f 40/27/3 51/49/25 39/50/26
f 41/30/6 52/51/27 40/27/3
f 42/32/8 53/52/28 41/30/6
f 43/34/10 54/53/29 42/32/8
f 44/36/12 55/54/30 43/34/10
f 57/55/31 44/36/12 45/38/14
f 58/56/32 45/38/14 46/42/18
f 59/57/33 46/42/18 47/44/20
f 60/58/34 47/44/20 48/46/22
f 61/59/35 48/46/22 49/48/24
f 62/60/36 49/48/24 50/61/37
f 52/51/27 63/62/38 51/49/25
f 53/52/28 64/63/39 52/51/27
f 54/53/29 65/64/40 53/52/28
f 55/54/30 66/65/41 54/53/29
f 56/66/42 67/67/43 55/54/30
f 69/68/44 56/66/42 57/55/31
f 70/69/45 57/55/31 58/56/32
f 71/70/46 58/56/32 59/57/33
f 72/71/47 59/57/33 60/58/34
f 73/72/48 60/58/34 61/59/35
f 74/73/49 61/59/35 62/60/36
f 76/74/50 63/62/38 64/63/39
f 77/75/51 64/63/39 65/64/40
f 78/76/52 65/64/40 66/65/41
f 79/77/53 66/65/41 67/67/43
f 80/78/54 67/67/43 68/79/55
f 81/80/56 68/79/55 69/68/44
f 70/69/45 81/80/56 69/68/44
f 71/70/46 82/81/57 70/69/45
f 72/71/47 83/82/58 71/70/46
f 73/72/48 84/83/59 72/71/47
f 74/73/49 85/84/60 73/72/48
f 76/74/50 87/85/61 75/86/62
f 77/75/51 88/87/63 76/74/50
f 78/76/52 89/88/64 77/75/51
f 79/77/53 90/89/65 78/76/52
f 80/78/54 91/90/66 79/77/53
f 93/91/67 80/78/54 81/80/56
f 94/92/68 81/80/56 82/81/57
f 95/93/69 82/81/57 83/82/58
f 96/94/70 83/82/58 84/83/59
f 97/95/71 84/83/59 85/84/60
f 98/96/72 85/84/60 86/97/73
f 100/98/74 87/85/61 88/87/63
f 101/99/75 88/87/63 89/88/64
f 102/100/76 89/88/64 90/89/65
f 103/101/77 90/89/65 91/90/66
f 104/102/78 91/90/66 92/103/79
f 105/104/80 92/103/79 93/91/67
f 94/92/68 105/104/80 93/91/67
f 107/105/81 94/92/68 95/93/69
f 108/106/82 95/93/69 96/94/70
f 109/107/83 96/94/70 97/95/71
f 110/108/84 97/95/71 98/96/72
f 28/29/5 99/109/85 100/98/74
f 29/31/7 100/98/74 101/99/75
f 30/33/9 101/99/75 102/100/76
f 31/35/11 102/100/76 103/101/77
f 32/37/13 103/101/77 104/102/78
f 33/39/15 104/102/78 105/104/80
f 106/110/86 33/39/15 105/104/80
f 107/105/81 34/40/16 106/110/86
f 36/43/19 107/105/81 108/106/82
f 37/45/21 108/106/82 109/107/83
f 38/47/23 109/107/83 110/108/84
f 112/111/87 123/112/88 111/113/89
f 113/114/90 124/115/91 112/111/87
f 114/116/92 125/117/93 113/114/90
f 115/118/94 126/119/95 114/116/92
f 116/120/96 127/121/97 115/118/94
f 129/122/98 116/120/96 117/123/99
f 130/124/100 117/123/99 118/125/101
f 131/126/102 118/125/101 119/127/103
f 132/128/104 119/127/103 120/129/105
f 133/130/106 120/129/105 121/131/107
f 134/132/108 121/131/107 122/133/109
f 136/134/110 123/112/88 124/115/91
f 137/135/111 124/115/91 125/117/93
f 138/136/112 125/117/93 126/119/95
f 139/137/113 126/119/95 127/121/97
f 140/138/114 127/121/97 128/139/115
f 141/140/116 128/139/115 129/122/98
f 130/124/100 141/140/116 129/122/98
f 131/126/102 142/141/117 130/124/100
f 132/128/104 143/142/118 131/126/102
f 133/130/106 144/143/119 132/128/104
f 134/132/108 145/144/120 133/130/106
f 136/134/110 147/145/25 135/146/25
f 137/135/111 148/147/121 136/134/110
f 138/136/112 149/148/122 137/135/111
f 139/137/113 150/149/123 138/136/112
f 140/138/114 151/150/124 139/137/113
f 153/151/125 140/138/114 141/140/116
f 154/152/126 141/140/116 142/141/117
f 155/153/127 142/141/117 143/142/118
f 156/154/128 143/142/118 144/143/119
f 157/155/129 144/143/119 145/144/120
f 158/156/36 145/144/120 146/157/36
f 148/147/121 159/158/38 147/145/25
f 149/148/122 160/159/39 148/147/121
f 150/149/123 161/160/130 149/148/122
f 151/150/124 162/161/131 150/149/123
f 152/162/132 163/163/133 151/150/124
f 165/164/134 152/162/132 153/151/125
f 166/165/135 153/151/125 154/152/126
f 167/166/136 154/152/126 155/153/127
f 168/167/137 155/153/127 156/154/128
f 169/168/48 156/154/128 157/155/129
f 170/169/49 157/155/129 158/156/36
f 172/170/138 159/158/38 160/159/39
f 173/171/139 160/159/39 161/160/130
f 174/172/140 161/160/130 162/161/131
f 175/173/141 162/161/131 163/163/133
f 176/174/142 163/163/133 164/175/143
f 177/176/144 164/175/143 165/164/134
f 166/165/135 177/176/144 165/164/134
f 167/166/136 178/177/145 166/165/135
f 168/167/137 179/178/146 167/166/136
f 169/168/48 180/179/147 168/167/137
f 170/169/49 181/180/148 169/168/48
f 172/170/138 111/113/89 171/181/149
f 173/171/139 112/111/87 172/170/138
f 174/172/140 113/114/90 173/171/139
f 175/173/141 114/116/92 174/172/140
f 176/174/142 115/118/94 175/173/141
f 117/123/99 176/174/142 177/176/144
f 118/125/101 177/176/144 178/177/145
f 119/127/103 178/177/145 179/178/146
f 120/129/105 179/178/146 180/179/147
f 121/131/107 180/179/147 181/180/148
f 122/133/109 181/180/148 182/182/150
f 40/27/3 39/50/26 27/28/4
f 41/30/6 40/27/3 28/29/5
f 42/32/8 41/30/6 29/31/7
f 43/34/10 42/32/8 30/33/9
f 44/36/12 43/34/10 31/35/11
f 45/38/14 44/36/12 32/37/13
f 34/40/16 46/42/18 45/38/14
f 35/41/17 47/44/20 46/42/18
f 36/43/19 48/46/22 47/44/20
f 37/45/21 49/48/24 48/46/22
f 38/47/23 50/61/37 49/48/24
f 40/27/3 52/51/27 51/49/25
f 41/30/6 53/52/28 52/51/27
f 42/32/8 54/53/29 53/52/28
f 43/34/10 55/54/30 54/53/29
f 44/36/12 56/66/42 55/54/30
f 57/55/31 56/66/42 44/36/12
f 58/56/32 57/55/31 45/38/14
f 59/57/33 58/56/32 46/42/18
f 60/58/34 59/57/33 47/44/20
f 61/59/35 60/58/34 48/46/22
f 62/60/36 61/59/35 49/48/24
f 52/51/27 64/63/39 63/62/38
f 53/52/28 65/64/40 64/63/39
f 54/53/29 66/65/41 65/64/40
f 55/54/30 67/67/43 66/65/41
f 56/66/42 68/79/55 67/67/43
f 69/68/44 68/79/55 56/66/42
f 70/69/45 69/68/44 57/55/31
f 71/70/46 70/69/45 58/56/32
f 72/71/47 71/70/46 59/57/33
f 73/72/48 72/71/47 60/58/34
f 74/73/49 73/72/48 61/59/35
f 76/74/50 75/86/62 63/62/38
f 77/75/51 76/74/50 64/63/39
f 78/76/52 77/75/51 65/64/40
f 79/77/53 78/76/52 66/65/41
f 80/78/54 79/77/53 67/67/43
f 81/80/56 80/78/54 68/79/55
f 70/69/45 82/81/57 81/80/56
f 71/70/46 83/82/58 82/81/57
f 72/71/47 84/83/59 83/82/58
f 73/72/48 85/84/60 84/83/59
f 74/73/49 86/97/73 85/84/60
f 76/74/50 88/87/63 87/85/61
f 77/75/51 89/88/64 88/87/63
f 78/76/52 90/89/65 89/88/64
f 79/77/53 91/90/66 90/89/65
f 80/78/54 92/103/79 91/90/66
f 93/91/67 92/103/79 80/78/54
f 94/92/68 93/91/67 81/80/56
f 95/93/69 94/92/68 82/81/57
f 96/94/70 95/93/69 83/82/58
f 97/95/71 96/94/70 84/83/59
f 98/96/72 97/95/71 85/84/60
f 100/98/74 99/109/85 87/85/61
f 101/99/75 100/98/74 88/87/63
f 102/100/76 101/99/75 89/88/64
f 103/101/77 102/100/76 90/89/65
f 104/102/78 103/101/77 91/90/66
f 105/104/80 104/102/78 92/103/79
f 94/92/68 106/110/86 105/104/80
f 107/105/81 106/110/86 94/92/68
f 108/106/82 107/105/81 95/93/69
f 109/107/83 108/106/82 96/94/70
f 110/108/84 109/107/83 97/95/71
f 28/29/5 27/28/4 99/109/85
f 29/31/7 28/29/5 100/98/74
f 30/33/9 29/31/7 101/99/75
f 31/35/11 30/33/9 102/100/76
f 32/37/13 31/35/11 103/101/77
f 33/39/15 32/37/13 104/102/78
f 106/110/86 34/40/16 33/39/15
f 107/105/81 35/41/17 34/40/16
f 36/43/19 35/41/17 107/105/81
f 37/45/21 36/43/19 108/106/82
f 38/47/23 37/45/21 109/107/83
f 112/111/87 124/115/91 123/112/88
f 113/114/90 125/117/93 124/115/91
f 114/116/92 126/119/95 125/117/93
f 115/118/94 127/121/97 126/119/95
f 116/120/96 128/139/115 127/121/97
f 129/122/98 128/139/115 116/120/96
f 130/124/100 129/122/98 117/123/99
f 131/126/102 130/124/100 118/125/101
f 132/128/104 131/126/102 119/127/103
f 133/130/106 132/128/104 120/129/105
f 134/132/108 133/130/106 121/131/107
f 136/134/110 135/146/25 123/112/88
f 137/135/111 136/134/110 124/115/91
f 138/136/112 137/135/111 125/117/93
f 139/137/113 138/136/112 126/119/95
f 140/138/114 139/137/113 127/121/97
f 141/140/116 140/138/114 128/139/115
f 130/124/100 142/141/117 141/140/116
f 131/126/102 143/142/118 142/141/117
f 132/128/104 144/143/119 143/142/118
f 133/130/106 145/144/120 144/143/119
f 134/132/108 146/157/36 145/144/120
f 136/134/110 148/147/121 147/145/25
f 137/135/111 149/148/122 148/147/121
f 138/136/112 150/149/123 149/148/122
f 139/137/113 151/150/124 150/149/123
f 140/138/114 152/162/132 151/150/124
f 153/151/125 152/162/132 140/138/114
f 154/152/126 153/151/125 141/140/116
f 155/153/127 154/152/126 142/141/117
f 156/154/128 155/153/127 143/142/118
f 157/155/129 156/154/128 144/143/119
f 158/156/36 157/155/129 145/144/120
f 148/147/121 160/159/39 159/158/38
f 149/148/122 161/160/130 160/159/39
f 150/149/123 162/161/131 161/160/130
f 151/150/124 163/163/133 162/161/131
f 152/162/132 164/175/143 163/163/133
f 165/164/134 164/175/143 152/162/132
f 166/165/135 165/164/134 153/151/125
f 167/166/136 166/165/135 154/152/126
f 168/167/137 167/166/136 155/153/127
f 169/168/48 168/167/137 156/154/128
f 170/169/49 169/168/48 157/155/129
f 172/170/138 171/181/149 159/158/38
f 173/171/139 172/170/138 160/159/39
f 174/172/140 173/171/139 161/160/130
f 175/173/141 174/172/140 162/161/131
f 176/174/142 175/173/141 163/163/133
f 177/176/144 176/174/142 164/175/143
f 166/165/135 178/177/145 177/176/144
f 167/166/136 179/178/146 178/177/145
f 168/167/137 180/179/147 179/178/146
f 169/168/48 181/180/148 180/179/147
f 170/169/49 182/182/150 181/180/148
f 172/170/138 112/111/87 111/113/89
f 173/171/139 113/114/90 112/111/87
f 174/172/140 114/116/92 113/114/90
f 175/173/141 115/118/94 114/116/92
f 176/174/142 116/120/96 115/118/94
f 117/123/99 116/120/96 176/174/142
f 118/125/101 117/123/99 177/176/144
f 119/127/103 118/125/101 178/177/145
f 120/129/105 119/127/103 179/178/146
f 121/131/107 120/129/105 180/179/147
f 122/133/109 121/131/107 181/180/148
