# Blender 4.4.3
# www.blender.org
mtllib text_ru.mtl
o ル
v 0.231904 -0.162563 -0.110000
v 0.269623 -0.112213 -0.110000
v 0.232781 -0.112213 -0.110000
v 0.068746 0.103928 -0.110000
v -0.012833 0.103928 -0.110000
v 0.189798 -0.162563 -0.110000
v -0.115465 0.281998 -0.110000
v -0.115465 -0.071686 -0.110000
v -0.225114 0.072612 -0.110000
v -0.306693 0.072612 -0.110000
v -0.127746 -0.162563 -0.110000
v -0.043535 -0.162563 -0.110000
v -0.043535 0.281998 -0.110000
v 0.231904 -0.162563 0.110000
v 0.269623 -0.112213 0.110000
v 0.232781 -0.112213 0.110000
v 0.068746 0.103928 0.110000
v -0.012833 0.103928 0.110000
v 0.189798 -0.162563 0.110000
v -0.115465 0.281998 0.110000
v -0.115465 -0.071686 0.110000
v -0.225114 0.072612 0.110000
v -0.306693 0.072612 0.110000
v -0.127746 -0.162563 0.110000
v -0.043535 -0.162563 0.110000
v -0.043535 0.281998 0.110000
v -0.115465 0.281998 0.110000
v -0.118555 0.284161 0.109511
v -0.121343 0.286112 0.108090
v -0.123555 0.287661 0.105878
v -0.124975 0.288655 0.103090
v -0.125465 0.288998 0.100000
v -0.125465 0.288998 -0.100000
v -0.124975 0.288655 -0.103090
v -0.123555 0.287661 -0.105878
v -0.121343 0.286112 -0.108090
v -0.118555 0.284161 -0.109511
v -0.115465 0.281998 -0.110000
v -0.115465 -0.071686 0.110000
v -0.118555 -0.063013 0.109511
v -0.121343 -0.055190 0.108090
v -0.123555 -0.048980 0.105878
v -0.124975 -0.044994 0.103090
v -0.125465 -0.043620 0.100000
v -0.125465 -0.043620 -0.100000
v -0.124975 -0.044994 -0.103090
v -0.123555 -0.048980 -0.105878
v -0.121343 -0.055190 -0.108090
v -0.118555 -0.063013 -0.109511
v -0.115465 -0.071686 -0.110000
v -0.225114 0.072612 0.110000
v -0.223258 0.074775 0.109511
v -0.221583 0.076727 0.108090
v -0.220254 0.078275 0.105878
v -0.219401 0.079269 0.103090
v -0.219107 0.079612 0.100000
v -0.219107 0.079612 -0.100000
v -0.219401 0.079269 -0.103090
v -0.220254 0.078275 -0.105878
v -0.221583 0.076727 -0.108090
v -0.223258 0.074775 -0.109511
v -0.225114 0.072612 -0.110000
v -0.306693 0.072612 0.110000
v -0.311840 0.074775 0.109511
v -0.316483 0.076727 0.108090
v -0.320168 0.078275 0.105878
v -0.322534 0.079269 0.103090
v -0.323349 0.079612 0.100000
v -0.323349 0.079612 -0.100000
v -0.322534 0.079269 -0.103090
v -0.320168 0.078275 -0.105878
v -0.316483 0.076727 -0.108090
v -0.311840 0.074775 -0.109511
v -0.306693 0.072612 -0.110000
v -0.127746 -0.162563 0.110000
v -0.129601 -0.164727 0.109511
v -0.131274 -0.166678 0.108090
v -0.132603 -0.168227 0.105878
v -0.133456 -0.169221 0.103090
v -0.133749 -0.169563 0.100000
v -0.133749 -0.169563 -0.100000
v -0.133456 -0.169221 -0.103090
v -0.132603 -0.168227 -0.105878
v -0.131274 -0.166678 -0.108090
v -0.129601 -0.164727 -0.109511
v -0.127746 -0.162563 -0.110000
v -0.043535 -0.162563 0.110000
v -0.040445 -0.164727 0.109511
v -0.037657 -0.166678 0.108090
v -0.035445 -0.168227 0.105878
v -0.034024 -0.169221 0.103090
v -0.033535 -0.169563 0.100000
v -0.033535 -0.169563 -0.100000
v -0.034024 -0.169221 -0.103090
v -0.035445 -0.168227 -0.105878
v -0.037657 -0.166678 -0.108090
v -0.040445 -0.164727 -0.109511
v -0.043535 -0.162563 -0.110000
v -0.043535 0.281998 0.110000
v -0.040445 0.284161 0.109511
v -0.037657 0.286112 0.108090
v -0.035445 0.287661 0.105878
v -0.034024 0.288655 0.103090
v -0.033535 0.288998 0.100000
v -0.033535 0.288998 -0.100000
v -0.034024 0.288655 -0.103090
v -0.035445 0.287661 -0.105878
v -0.037657 0.286112 -0.108090
v -0.040445 0.284161 -0.109511
v -0.043535 0.281998 -0.110000
v 0.231904 -0.162563 0.110000
v 0.233772 -0.164727 0.109511
v 0.235458 -0.166678 0.108090
v 0.236796 -0.168227 0.105878
v 0.237655 -0.169221 0.103090
v 0.237951 -0.169563 0.100000
v 0.237951 -0.169563 -0.100000
v 0.237655 -0.169221 -0.103090
v 0.236796 -0.168227 -0.105878
v 0.235458 -0.166678 -0.108090
v 0.233772 -0.164727 -0.109511
v 0.231904 -0.162563 -0.110000
v 0.269623 -0.112213 0.110000
v 0.274733 -0.110049 0.109511
v 0.279342 -0.108098 0.108090
v 0.283000 -0.106549 0.105878
v 0.285349 -0.105555 0.103090
v 0.286158 -0.105213 0.100000
v 0.286158 -0.105213 -0.100000
v 0.285349 -0.105555 -0.103090
v 0.283000 -0.106549 -0.105878
v 0.279342 -0.108098 -0.108090
v 0.274733 -0.110049 -0.109511
v 0.269623 -0.112213 -0.110000
v 0.232781 -0.112213 0.110000
v 0.234638 -0.110049 0.109511
v 0.236314 -0.108098 0.108090
v 0.237644 -0.106549 0.105878
v 0.238498 -0.105555 0.103090
v 0.238792 -0.105213 0.100000
v 0.238792 -0.105213 -0.100000
v 0.238498 -0.105555 -0.103090
v 0.237644 -0.106549 -0.105878
v 0.236314 -0.108098 -0.108090
v 0.234638 -0.110049 -0.109511
v 0.232781 -0.112213 -0.110000
v 0.068746 0.103928 0.110000
v 0.070603 0.106091 0.109511
v 0.072279 0.108042 0.108090
v 0.073609 0.109591 0.105878
v 0.074462 0.110585 0.103090
v 0.074757 0.110928 0.100000
v 0.074757 0.110928 -0.100000
v 0.074462 0.110585 -0.103090
v 0.073609 0.109591 -0.105878
v 0.072279 0.108042 -0.108090
v 0.070603 0.106091 -0.109511
v 0.068746 0.103928 -0.110000
v -0.012833 0.103928 0.110000
v -0.017979 0.106091 0.109511
v -0.022620 0.108042 0.108090
v -0.026304 0.109591 0.105878
v -0.028669 0.110585 0.103090
v -0.029484 0.110928 0.100000
v -0.029484 0.110928 -0.100000
v -0.028669 0.110585 -0.103090
v -0.026304 0.109591 -0.105878
v -0.022620 0.108042 -0.108090
v -0.017979 0.106091 -0.109511
v -0.012833 0.103928 -0.110000
v 0.189798 -0.162563 0.110000
v 0.187943 -0.164727 0.109511
v 0.186268 -0.166678 0.108090
v 0.184940 -0.168227 0.105878
v 0.184087 -0.169221 0.103090
v 0.183793 -0.169563 0.100000
v 0.183793 -0.169563 -0.100000
v 0.184087 -0.169221 -0.103090
v 0.184940 -0.168227 -0.105878
v 0.186268 -0.166678 -0.108090
v 0.187943 -0.164727 -0.109511
v 0.189798 -0.162563 -0.110000
vn -0.0000 -0.0000 -1.0000
vn -0.0000 -0.0000 1.0000
vn -0.0134 0.0645 0.9978
vn -0.0732 0.1195 0.9901
vn -0.1943 0.2723 0.9424
vn -0.0407 0.1833 0.9822
vn -0.3685 0.4411 0.8183
vn -0.0914 0.3435 0.9347
vn -0.5378 0.5741 0.6174
vn -0.1931 0.6226 0.7583
vn -0.6671 0.6647 0.3363
vn -0.3051 0.9179 0.2536
vn -0.7086 0.6998 0.0904
vn -0.3050 0.9180 -0.2536
vn -0.7086 0.6998 -0.0904
vn -0.6671 0.6647 -0.3363
vn -0.5378 0.5741 -0.6174
vn -0.1931 0.6226 -0.7583
vn -0.3685 0.4411 -0.8183
vn -0.0914 0.3435 -0.9347
vn -0.1943 0.2723 -0.9424
vn -0.0407 0.1833 -0.9822
vn -0.0732 0.1195 -0.9901
vn -0.0134 0.0645 -0.9978
vn 0.0608 0.1704 0.9835
vn -0.0172 0.0502 0.9986
vn 0.1471 0.3595 0.9215
vn 0.2729 0.5982 0.7535
vn 0.3711 0.7639 0.5280
vn 0.4323 0.8601 0.2708
vn 0.4475 0.8916 0.0691
vn 0.4323 0.8601 -0.2708
vn 0.3711 0.7639 -0.5280
vn 0.2729 0.5982 -0.7535
vn 0.1471 0.3595 -0.9215
vn 0.0608 0.1704 -0.9835
vn -0.0172 0.0502 -0.9986
vn -0.0683 0.0627 0.9957
vn -0.1964 0.1534 0.9684
vn -0.3760 0.2415 0.8946
vn -0.5911 0.3247 0.7384
vn -0.8035 0.4020 0.4390
vn -0.8901 0.4372 -0.1289
vn 0.4475 0.8916 -0.0691
vn -0.8035 0.4020 -0.4390
vn -0.5911 0.3247 -0.7384
vn -0.3760 0.2415 -0.8946
vn -0.1964 0.1534 -0.9684
vn -0.0683 0.0627 -0.9957
vn -0.1470 -0.3596 0.9214
vn -0.2727 -0.5983 0.7534
vn -0.3709 -0.7641 0.5279
vn -0.4320 -0.8603 0.2707
vn -0.4472 -0.8918 0.0691
vn -0.8901 0.4372 0.1289
vn -0.4472 -0.8918 -0.0691
vn -0.4320 -0.8603 -0.2707
vn -0.3709 -0.7641 -0.5279
vn -0.2727 -0.5983 -0.7534
vn -0.1470 -0.3596 -0.9214
vn 0.0732 -0.1195 0.9901
vn -0.0608 -0.1704 0.9835
vn 0.1943 -0.2723 0.9424
vn 0.3685 -0.4411 0.8183
vn 0.5378 -0.5741 0.6174
vn 0.6671 -0.6647 0.3363
vn 0.7086 -0.6998 -0.0904
vn 0.6671 -0.6647 -0.3363
vn 0.5378 -0.5741 -0.6174
vn 0.3685 -0.4411 -0.8183
vn 0.1943 -0.2723 -0.9424
vn 0.0732 -0.1195 -0.9901
vn -0.0608 -0.1704 -0.9835
vn 0.0732 0.1195 0.9901
vn 0.1943 0.2723 0.9424
vn 0.5378 0.5741 0.6174
vn 0.6671 0.6647 0.3363
vn 0.7086 -0.6998 0.0904
vn 0.7086 0.6998 -0.0904
vn 0.6671 0.6647 -0.3363
vn 0.3685 0.4411 -0.8183
vn 0.1943 0.2723 -0.9424
vn 0.0732 0.1195 -0.9901
vn 0.3685 0.4411 0.8183
vn 0.7086 0.6998 0.0904
vn 0.5378 0.5741 -0.6174
vn 0.1478 -0.3587 0.9217
vn 0.0685 0.0634 0.9956
vn 0.0610 -0.1698 0.9836
vn 0.2743 -0.5967 0.7541
vn 0.1968 0.1550 0.9681
vn 0.3733 -0.7622 0.5288
vn 0.3767 0.2441 0.8936
vn 0.4352 -0.8585 0.2714
vn 0.5915 0.3279 0.7366
vn 0.4506 -0.8901 0.0693
vn 0.8028 0.4053 0.4373
vn 0.8885 0.4405 -0.1283
vn 0.4506 -0.8901 -0.0693
vn 0.8028 0.4053 -0.4373
vn 0.4352 -0.8585 -0.2714
vn 0.5915 0.3279 -0.7366
vn 0.3733 -0.7622 -0.5288
vn 0.3767 0.2441 -0.8936
vn 0.2743 -0.5967 -0.7541
vn 0.1968 0.1550 -0.9681
vn 0.1478 -0.3587 -0.9217
vn 0.0685 0.0634 -0.9956
vn 0.0610 -0.1698 -0.9836
vn 0.1265 0.2674 0.9552
vn 0.2503 0.5483 0.7979
vn 0.3498 0.7480 0.5640
vn 0.4134 0.8631 0.2901
vn 0.4387 0.8958 0.0715
vn 0.8885 0.4405 0.1282
vn 0.4387 0.8958 -0.0715
vn 0.4134 0.8631 -0.2901
vn 0.3498 0.7480 -0.5640
vn 0.2503 0.5483 -0.7979
vn 0.1265 0.2674 -0.9552
vn 0.0608 0.1703 0.9835
vn 0.0843 0.1505 0.9850
vn 0.1472 0.3595 0.9215
vn 0.2730 0.5981 0.7535
vn 0.3713 0.7637 0.5280
vn 0.4325 0.8600 0.2708
vn 0.4478 0.8915 -0.0691
vn 0.4325 0.8600 -0.2708
vn 0.3713 0.7637 -0.5280
vn 0.2730 0.5981 -0.7535
vn 0.1472 0.3595 -0.9215
vn 0.0608 0.1703 -0.9835
vn 0.0843 0.1505 -0.9850
vn -0.0684 0.0627 0.9957
vn -0.1964 0.1535 0.9684
vn -0.3760 0.2417 0.8945
vn -0.5911 0.3249 0.7383
vn 0.4478 0.8915 0.0691
vn -0.8035 0.4021 0.4389
vn -0.8900 0.4373 -0.1289
vn -0.8035 0.4021 -0.4389
vn -0.5911 0.3249 -0.7383
vn -0.3760 0.2417 -0.8945
vn -0.1964 0.1535 -0.9684
vn -0.0684 0.0627 -0.9957
vn -0.1471 -0.3596 0.9215
vn -0.2728 -0.5983 0.7534
vn -0.3710 -0.7640 0.5279
vn -0.4322 -0.8602 0.2707
vn -0.4473 -0.8917 0.0691
vn -0.8900 0.4373 0.1289
vn -0.4473 -0.8917 -0.0691
vn -0.4322 -0.8602 -0.2707
vn -0.3710 -0.7640 -0.5279
vn -0.2728 -0.5983 -0.7534
vn -0.1471 -0.3596 -0.9215
vt 0.666268 0.936097
vt 0.619484 0.523033
vt 0.666268 0.523033
vt 0.619484 0.851658
vt 0.495109 0.717584
vt 0.548168 0.717584
vt 0.611497 0.936097
vt 0.860152 0.564063
vt 0.906811 0.816400
vt 0.859973 0.791470
vt 0.906811 0.535900
vt 0.882637 0.523033
vt 0.838999 0.552804
vt 0.838213 0.523033
vt 0.838213 0.936097
vt 0.791429 0.936097
vt 0.791429 0.607471
vt 0.720113 0.741546
vt 0.667054 0.741546
vt 0.783442 0.523033
vt 0.928750 0.775370
vt 0.928571 0.547963
vt 0.975409 0.523033
vt 0.975409 0.803533
vt 0.951234 0.816400
vt 0.907597 0.786628
vt 0.308175 0.486795
vt 0.133485 0.299642
vt 0.134632 0.298926
vt 0.299043 0.483238
vt 0.135869 0.298169
vt 0.289914 0.479317
vt 0.137185 0.297364
vt 0.280829 0.475151
vt 0.138534 0.296539
vt 0.271844 0.470842
vt 0.139954 0.295596
vt 0.460056 0.039511
vt 0.043642 0.256567
vt 0.041838 0.254722
vt 0.039869 0.252748
vt 0.466700 0.031660
vt 0.037736 0.250581
vt 0.473586 0.023724
vt 0.035415 0.248250
vt 0.480580 0.015789
vt 0.032876 0.245732
vt 0.487536 0.007970
vt 0.373337 0.271258
vt 0.317276 0.489903
vt 0.377552 0.264012
vt 0.382051 0.256839
vt 0.386845 0.249684
vt 0.391999 0.242520
vt 0.397458 0.235182
vt 0.399418 0.218858
vt 0.401238 0.219054
vt 0.403072 0.219281
vt 0.404881 0.219552
vt 0.406652 0.219866
vt 0.494322 0.000393
vt 0.426425 0.262544
vt 0.425217 0.260613
vt 0.423945 0.258849
vt 0.422618 0.257221
vt 0.421236 0.255700
vt 0.415115 0.252113
vt 0.397537 0.218679
vt 0.417401 0.252376
vt 0.419843 0.252606
vt 0.422406 0.252803
vt 0.425151 0.252959
vt 0.428135 0.253071
vt 0.369724 0.566702
vt 0.372868 0.566668
vt 0.376085 0.566734
vt 0.379407 0.566917
vt 0.382896 0.567233
vt 0.419719 0.254312
vt 0.471008 0.783952
vt 0.475671 0.788409
vt 0.480238 0.793040
vt 0.484828 0.797903
vt 0.489512 0.803051
vt 0.320614 0.579958
vt 0.366636 0.566827
vt 0.322545 0.585381
vt 0.324551 0.590738
vt 0.326610 0.596057
vt 0.328708 0.601368
vt 0.347314 0.771633
vt 0.345500 0.775046
vt 0.343671 0.778589
vt 0.341793 0.782205
vt 0.339843 0.785918
vt 0.337816 0.789746
vt 0.494322 0.808516
vt 0.111835 0.320090
vt 0.110969 0.319397
vt 0.109174 0.318109
vt 0.108182 0.317489
vt 0.330856 0.606624
vt 0.015362 0.315119
vt 0.012584 0.315397
vt 0.006703 0.315864
vt 0.003616 0.316002
vt 0.000393 0.316094
vt 0.110092 0.318741
vt 0.107198 0.316885
vt 0.009679 0.315665
vt 0.910861 0.226240
vt 0.625710 0.169042
vt 0.920296 0.216381
vt 0.902650 0.235362
vt 0.618226 0.181370
vt 0.895447 0.243843
vt 0.612268 0.191730
vt 0.889059 0.251874
vt 0.607393 0.200681
vt 0.883473 0.259668
vt 0.603243 0.208796
vt 0.585982 0.427538
vt 0.590540 0.430785
vt 0.586035 0.427781
vt 0.590365 0.430887
vt 0.586086 0.428018
vt 0.590196 0.430982
vt 0.586140 0.428254
vt 0.590033 0.431073
vt 0.586202 0.428499
vt 0.589871 0.431162
vt 0.586272 0.428757
vt 0.589709 0.431250
vt 0.499714 0.030708
vt 0.504023 0.058647
vt 0.508070 0.083383
vt 0.511887 0.104914
vt 0.515491 0.123814
vt 0.599487 0.216473
vt 0.584562 0.430105
vt 0.584740 0.430237
vt 0.584915 0.430365
vt 0.585086 0.430490
vt 0.585256 0.430610
vt 0.495109 0.522247
vt 0.495109 0.000393
vt 0.499173 0.515959
vt 0.502881 0.510285
vt 0.506305 0.505126
vt 0.509512 0.500369
vt 0.568872 0.445084
vt 0.569107 0.445122
vt 0.569325 0.445161
vt 0.569537 0.445204
vt 0.569746 0.445249
vt 0.569952 0.445295
vt 0.585420 0.430726
vt 0.574799 0.475729
vt 0.573569 0.472856
vt 0.572464 0.470244
vt 0.571460 0.467850
vt 0.512645 0.495825
vt 0.570538 0.465618
vt 0.571370 0.450440
vt 0.571429 0.450158
vt 0.571486 0.449875
vt 0.571543 0.449599
vt 0.571599 0.449327
vt 0.571656 0.449056
vt 0.942238 0.367564
vt 0.935926 0.365975
vt 0.929564 0.364472
vt 0.923255 0.363000
vt 0.917056 0.361471
vt 0.569704 0.463572
vt 0.590803 0.433938
vt 0.590599 0.433852
vt 0.590407 0.433771
vt 0.590223 0.433693
vt 0.590044 0.433615
vt 0.948357 0.369267
vt 0.589865 0.433539
s 0
usemtl マテリアル
f 12/1/1 7/2/1 13/3/1
f 12/1/1 8/4/1 7/2/1
f 8/4/1 10/5/1 9/6/1
f 8/4/1 11/7/1 10/5/1
f 12/1/1 11/7/1 8/4/1
f 3/8/1 5/9/1 4/10/1
f 3/8/1 6/11/1 5/9/1
f 1/12/1 3/8/1 2/13/1
f 1/12/1 6/11/1 3/8/1
f 25/14/2 26/15/2 20/16/2
f 25/14/2 20/16/2 21/17/2
f 21/17/2 22/18/2 23/19/2
f 21/17/2 23/19/2 24/20/2
f 25/14/2 21/17/2 24/20/2
f 16/21/2 17/22/2 18/23/2
f 16/21/2 18/23/2 19/24/2
f 14/25/2 15/26/2 16/21/2
f 14/25/2 16/21/2 19/24/2
s 1
f 40/27/3 27/28/4 28/29/5
f 41/30/6 28/29/5 29/31/7
f 42/32/8 29/31/7 30/33/9
f 43/34/10 30/33/9 31/35/11
f 44/36/12 31/35/11 32/37/13
f 45/38/14 32/37/13 33/39/15
f 34/40/16 45/38/14 33/39/15
f 35/41/17 46/42/18 34/40/16
f 36/43/19 47/44/20 35/41/17
f 37/45/21 48/46/22 36/43/19
f 38/47/23 49/48/24 37/45/21
f 40/27/3 51/49/25 39/50/26
f 41/30/6 52/51/27 40/27/3
f 42/32/8 53/52/28 41/30/6
f 43/34/10 54/53/29 42/32/8
f 44/36/12 55/54/30 43/34/10
f 45/38/14 56/55/31 44/36/12
f 58/56/32 45/38/14 46/42/18
f 59/57/33 46/42/18 47/44/20
f 60/58/34 47/44/20 48/46/22
f 61/59/35 48/46/22 49/48/24
f 62/60/36 49/48/24 50/61/37
f 52/51/27 63/62/38 51/49/25
f 53/52/28 64/63/39 52/51/27
f 54/53/29 65/64/40 53/52/28
f 55/54/30 66/65/41 54/53/29
f 56/55/31 67/66/42 55/54/30
f 69/67/43 56/55/31 57/68/44
f 70/69/45 57/68/44 58/56/32
f 71/70/46 58/56/32 59/57/33
f 72/71/47 59/57/33 60/58/34
f 73/72/48 60/58/34 61/59/35
f 74/73/49 61/59/35 62/60/36
f 76/74/50 63/62/38 64/63/39
f 77/75/51 64/63/39 65/64/40
f 78/76/52 65/64/40 66/65/41
f 79/77/53 66/65/41 67/66/42
f 80/78/54 67/66/42 68/79/55
f 81/80/56 68/79/55 69/67/43
f 70/69/45 81/80/56 69/67/43
f 71/70/46 82/81/57 70/69/45
f 72/71/47 83/82/58 71/70/46
f 73/72/48 84/83/59 72/71/47
f 74/73/49 85/84/60 73/72/48
f 76/74/50 87/85/61 75/86/62
f 77/75/51 88/87/63 76/74/50
f 78/76/52 89/88/64 77/75/51
f 79/77/53 90/89/65 78/76/52
f 80/78/54 91/90/66 79/77/53
f 93/91/67 80/78/54 81/80/56
f 94/92/68 81/80/56 82/81/57
f 95/93/69 82/81/57 83/82/58
f 96/94/70 83/82/58 84/83/59
f 97/95/71 84/83/59 85/84/60
f 98/96/72 85/84/60 86/97/73
f 88/87/63 99/98/74 87/85/61
f 89/88/64 100/99/75 88/87/63
f 102/100/76 89/88/64 90/89/65
f 103/101/77 90/89/65 91/90/66
f 92/102/78 103/101/77 91/90/66
f 105/103/79 92/102/78 93/91/67
f 106/104/80 93/91/67 94/92/68
f 95/93/69 106/104/80 94/92/68
f 108/105/81 95/93/69 96/94/70
f 109/106/82 96/94/70 97/95/71
f 110/107/83 97/95/71 98/96/72
f 28/29/5 99/98/74 100/99/75
f 29/31/7 100/99/75 101/108/84
f 30/33/9 101/108/84 102/100/76
f 31/35/11 102/100/76 103/101/77
f 32/37/13 103/101/77 104/109/85
f 33/39/15 104/109/85 105/103/79
f 34/40/16 105/103/79 106/104/80
f 107/110/86 34/40/16 106/104/80
f 36/43/19 107/110/86 108/105/81
f 37/45/21 108/105/81 109/106/82
f 38/47/23 109/106/82 110/107/83
f 112/111/87 123/112/88 111/113/89
f 113/114/90 124/115/91 112/111/87
f 114/116/92 125/117/93 113/114/90
f 115/118/94 126/119/95 114/116/92
f 116/120/96 127/121/97 115/118/94
f 129/122/98 116/120/96 117/123/99
f 130/124/100 117/123/99 118/125/101
f 131/126/102 118/125/101 119/127/103
f 132/128/104 119/127/103 120/129/105
f 133/130/106 120/129/105 121/131/107
f 134/132/108 121/131/107 122/133/109
f 136/134/110 123/112/88 124/115/91
f 137/135/111 124/115/91 125/117/93
f 138/136/112 125/117/93 126/119/95
f 139/137/113 126/119/95 127/121/97
f 140/138/114 127/121/97 128/139/115
f 141/140/116 128/139/115 129/122/98
f 130/124/100 141/140/116 129/122/98
f 131/126/102 142/141/117 130/124/100
f 132/128/104 143/142/118 131/126/102
f 133/130/106 144/143/119 132/128/104
f 134/132/108 145/144/120 133/130/106
f 136/134/110 147/145/121 135/146/122
f 137/135/111 148/147/123 136/134/110
f 138/136/112 149/148/124 137/135/111
f 139/137/113 150/149/125 138/136/112
f 140/138/114 151/150/126 139/137/113
f 153/151/127 140/138/114 141/140/116
f 154/152/128 141/140/116 142/141/117
f 155/153/129 142/141/117 143/142/118
f 156/154/130 143/142/118 144/143/119
f 157/155/131 144/143/119 145/144/120
f 158/156/132 145/144/120 146/157/133
f 148/147/123 159/158/134 147/145/121
f 149/148/124 160/159/135 148/147/123
f 150/149/125 161/160/136 149/148/124
f 151/150/126 162/161/137 150/149/125
f 152/162/138 163/163/139 151/150/126
f 165/164/140 152/162/138 153/151/127
f 166/165/141 153/151/127 154/152/128
f 167/166/142 154/152/128 155/153/129
f 168/167/143 155/153/129 156/154/130
f 169/168/144 156/154/130 157/155/131
f 170/169/145 157/155/131 158/156/132
f 172/170/146 159/158/134 160/159/135
f 173/171/147 160/159/135 161/160/136
f 174/172/148 161/160/136 162/161/137
f 175/173/149 162/161/137 163/163/139
f 176/174/150 163/163/139 164/175/151
f 165/164/140 176/174/150 164/175/151
f 166/165/141 177/176/152 165/164/140
f 167/166/142 178/177/153 166/165/141
f 168/167/143 179/178/154 167/166/142
f 169/168/144 180/179/155 168/167/143
f 170/169/145 181/180/156 169/168/144
f 172/170/146 111/113/89 171/181/62
f 173/171/147 112/111/87 172/170/146
f 174/172/148 113/114/90 173/171/147
f 175/173/149 114/116/92 174/172/148
f 176/174/150 115/118/94 175/173/149
f 117/123/99 176/174/150 177/176/152
f 118/125/101 177/176/152 178/177/153
f 119/127/103 178/177/153 179/178/154
f 120/129/105 179/178/154 180/179/155
f 121/131/107 180/179/155 181/180/156
f 122/133/109 181/180/156 182/182/73
f 40/27/3 39/50/26 27/28/4
f 41/30/6 40/27/3 28/29/5
f 42/32/8 41/30/6 29/31/7
f 43/34/10 42/32/8 30/33/9
f 44/36/12 43/34/10 31/35/11
f 45/38/14 44/36/12 32/37/13
f 34/40/16 46/42/18 45/38/14
f 35/41/17 47/44/20 46/42/18
f 36/43/19 48/46/22 47/44/20
f 37/45/21 49/48/24 48/46/22
f 38/47/23 50/61/37 49/48/24
f 40/27/3 52/51/27 51/49/25
f 41/30/6 53/52/28 52/51/27
f 42/32/8 54/53/29 53/52/28
f 43/34/10 55/54/30 54/53/29
f 44/36/12 56/55/31 55/54/30
f 45/38/14 57/68/44 56/55/31
f 58/56/32 57/68/44 45/38/14
f 59/57/33 58/56/32 46/42/18
f 60/58/34 59/57/33 47/44/20
f 61/59/35 60/58/34 48/46/22
f 62/60/36 61/59/35 49/48/24
f 52/51/27 64/63/39 63/62/38
f 53/52/28 65/64/40 64/63/39
f 54/53/29 66/65/41 65/64/40
f 55/54/30 67/66/42 66/65/41
f 56/55/31 68/79/55 67/66/42
f 69/67/43 68/79/55 56/55/31
f 70/69/45 69/67/43 57/68/44
f 71/70/46 70/69/45 58/56/32
f 72/71/47 71/70/46 59/57/33
f 73/72/48 72/71/47 60/58/34
f 74/73/49 73/72/48 61/59/35
f 76/74/50 75/86/62 63/62/38
f 77/75/51 76/74/50 64/63/39
f 78/76/52 77/75/51 65/64/40
f 79/77/53 78/76/52 66/65/41
f 80/78/54 79/77/53 67/66/42
f 81/80/56 80/78/54 68/79/55
f 70/69/45 82/81/57 81/80/56
f 71/70/46 83/82/58 82/81/57
f 72/71/47 84/83/59 83/82/58
f 73/72/48 85/84/60 84/83/59
f 74/73/49 86/97/73 85/84/60
f 76/74/50 88/87/63 87/85/61
f 77/75/51 89/88/64 88/87/63
f 78/76/52 90/89/65 89/88/64
f 79/77/53 91/90/66 90/89/65
f 80/78/54 92/102/78 91/90/66
f 93/91/67 92/102/78 80/78/54
f 94/92/68 93/91/67 81/80/56
f 95/93/69 94/92/68 82/81/57
f 96/94/70 95/93/69 83/82/58
f 97/95/71 96/94/70 84/83/59
f 98/96/72 97/95/71 85/84/60
f 88/87/63 100/99/75 99/98/74
f 89/88/64 101/108/84 100/99/75
f 102/100/76 101/108/84 89/88/64
f 103/101/77 102/100/76 90/89/65
f 92/102/78 104/109/85 103/101/77
f 105/103/79 104/109/85 92/102/78
f 106/104/80 105/103/79 93/91/67
f 95/93/69 107/110/86 106/104/80
f 108/105/81 107/110/86 95/93/69
f 109/106/82 108/105/81 96/94/70
f 110/107/83 109/106/82 97/95/71
f 28/29/5 27/28/4 99/98/74
f 29/31/7 28/29/5 100/99/75
f 30/33/9 29/31/7 101/108/84
f 31/35/11 30/33/9 102/100/76
f 32/37/13 31/35/11 103/101/77
f 33/39/15 32/37/13 104/109/85
f 34/40/16 33/39/15 105/103/79
f 107/110/86 35/41/17 34/40/16
f 36/43/19 35/41/17 107/110/86
f 37/45/21 36/43/19 108/105/81
f 38/47/23 37/45/21 109/106/82
f 112/111/87 124/115/91 123/112/88
f 113/114/90 125/117/93 124/115/91
f 114/116/92 126/119/95 125/117/93
f 115/118/94 127/121/97 126/119/95
f 116/120/96 128/139/115 127/121/97
f 129/122/98 128/139/115 116/120/96
f 130/124/100 129/122/98 117/123/99
f 131/126/102 130/124/100 118/125/101
f 132/128/104 131/126/102 119/127/103
f 133/130/106 132/128/104 120/129/105
f 134/132/108 133/130/106 121/131/107
f 136/134/110 135/146/122 123/112/88
f 137/135/111 136/134/110 124/115/91
f 138/136/112 137/135/111 125/117/93
f 139/137/113 138/136/112 126/119/95
f 140/138/114 139/137/113 127/121/97
f 141/140/116 140/138/114 128/139/115
f 130/124/100 142/141/117 141/140/116
f 131/126/102 143/142/118 142/141/117
f 132/128/104 144/143/119 143/142/118
f 133/130/106 145/144/120 144/143/119
f 134/132/108 146/157/133 145/144/120
f 136/134/110 148/147/123 147/145/121
f 137/135/111 149/148/124 148/147/123
f 138/136/112 150/149/125 149/148/124
f 139/137/113 151/150/126 150/149/125
f 140/138/114 152/162/138 151/150/126
f 153/151/127 152/162/138 140/138/114
f 154/152/128 153/151/127 141/140/116
f 155/153/129 154/152/128 142/141/117
f 156/154/130 155/153/129 143/142/118
f 157/155/131 156/154/130 144/143/119
f 158/156/132 157/155/131 145/144/120
f 148/147/123 160/159/135 159/158/134
f 149/148/124 161/160/136 160/159/135
f 150/149/125 162/161/137 161/160/136
f 151/150/126 163/163/139 162/161/137
f 152/162/138 164/175/151 163/163/139
f 165/164/140 164/175/151 152/162/138
f 166/165/141 165/164/140 153/151/127
f 167/166/142 166/165/141 154/152/128
f 168/167/143 167/166/142 155/153/129
f 169/168/144 168/167/143 156/154/130
f 170/169/145 169/168/144 157/155/131
f 172/170/146 171/181/62 159/158/134
f 173/171/147 172/170/146 160/159/135
f 174/172/148 173/171/147 161/160/136
f 175/173/149 174/172/148 162/161/137
f 176/174/150 175/173/149 163/163/139
f 165/164/140 177/176/152 176/174/150
f 166/165/141 178/177/153 177/176/152
f 167/166/142 179/178/154 178/177/153
f 168/167/143 180/179/155 179/178/154
f 169/168/144 181/180/156 180/179/155
f 170/169/145 182/182/73 181/180/156
f 172/170/146 112/111/87 111/113/89
f 173/171/147 113/114/90 112/111/87
f 174/172/148 114/116/92 113/114/90
f 175/173/149 115/118/94 114/116/92
f 176/174/150 116/120/96 115/118/94
f 117/123/99 116/120/96 176/174/150
f 118/125/101 117/123/99 177/176/152
f 119/127/103 118/125/101 178/177/153
f 120/129/105 119/127/103 179/178/154
f 121/131/107 120/129/105 180/179/155
f 122/133/109 121/131/107 181/180/156
