# Blender 4.4.3
# www.blender.org
mtllib text_i.mtl
o イ
v -0.048363 0.224942 -0.110000
v -0.243977 0.224942 -0.110000
v -0.243977 0.174591 -0.110000
v -0.093100 0.174591 -0.110000
v 0.137602 -0.129357 -0.110000
v 0.213918 -0.129357 -0.110000
v 0.252514 -0.079006 -0.110000
v 0.182339 -0.079006 -0.110000
v -0.076433 0.050556 -0.110000
v -0.076433 -0.241725 -0.110000
v -0.002749 -0.241725 -0.110000
v -0.002749 0.050556 -0.110000
v -0.048363 0.224942 0.110000
v -0.243977 0.224942 0.110000
v -0.243977 0.174591 0.110000
v -0.093100 0.174591 0.110000
v 0.137602 -0.129357 0.110000
v 0.213918 -0.129357 0.110000
v 0.252514 -0.079006 0.110000
v 0.182339 -0.079006 0.110000
v -0.076433 0.050556 0.110000
v -0.076433 -0.241725 0.110000
v -0.002749 -0.241725 0.110000
v -0.002749 0.050556 0.110000
v -0.048363 0.224942 0.110000
v -0.046506 0.227105 0.109511
v -0.044830 0.229056 0.108090
v -0.043500 0.230605 0.105878
v -0.042646 0.231599 0.103090
v -0.042352 0.231942 0.100000
v -0.042352 0.231942 -0.100000
v -0.042646 0.231599 -0.103090
v -0.043500 0.230605 -0.105878
v -0.044830 0.229056 -0.108090
v -0.046506 0.227105 -0.109511
v -0.048363 0.224942 -0.110000
v -0.243977 0.224942 0.110000
v -0.247067 0.227105 0.109511
v -0.249855 0.229056 0.108090
v -0.252067 0.230605 0.105878
v -0.253488 0.231599 0.103090
v -0.253977 0.231942 0.100000
v -0.253977 0.231942 -0.100000
v -0.253488 0.231599 -0.103090
v -0.252067 0.230605 -0.105878
v -0.249855 0.229056 -0.108090
v -0.247067 0.227105 -0.109511
v -0.243977 0.224942 -0.110000
v -0.243977 0.174591 0.110000
v -0.247067 0.172428 0.109511
v -0.249855 0.170476 0.108090
v -0.252067 0.168928 0.105878
v -0.253488 0.167933 0.103090
v -0.253977 0.167591 0.100000
v -0.253977 0.167591 -0.100000
v -0.253488 0.167933 -0.103090
v -0.252067 0.168928 -0.105878
v -0.249855 0.170476 -0.108090
v -0.247067 0.172428 -0.109511
v -0.243977 0.174591 -0.110000
v -0.093100 0.174591 0.110000
v -0.094957 0.172428 0.109511
v -0.096633 0.170476 0.108090
v -0.097963 0.168928 0.105878
v -0.098816 0.167933 0.103090
v -0.099111 0.167591 0.100000
v -0.099111 0.167591 -0.100000
v -0.098816 0.167933 -0.103090
v -0.097963 0.168928 -0.105878
v -0.096633 0.170476 -0.108090
v -0.094957 0.172428 -0.109511
v -0.093100 0.174591 -0.110000
v 0.137602 -0.129357 0.110000
v 0.135745 -0.131520 0.109511
v 0.134069 -0.133471 0.108090
v 0.132739 -0.135020 0.105878
v 0.131885 -0.136014 0.103090
v 0.131591 -0.136357 0.100000
v 0.131591 -0.136357 -0.100000
v 0.131885 -0.136014 -0.103090
v 0.132739 -0.135020 -0.105878
v 0.134069 -0.133471 -0.108090
v 0.135745 -0.131520 -0.109511
v 0.137602 -0.129357 -0.110000
v 0.213918 -0.129357 0.110000
v 0.215767 -0.131520 0.109511
v 0.217434 -0.133471 0.108090
v 0.218758 -0.135020 0.105878
v 0.219608 -0.136014 0.103090
v 0.219901 -0.136357 0.100000
v 0.219901 -0.136357 -0.100000
v 0.219608 -0.136014 -0.103090
v 0.218758 -0.135020 -0.105878
v 0.217434 -0.133471 -0.108090
v 0.215767 -0.131520 -0.109511
v 0.213918 -0.129357 -0.110000
v 0.252514 -0.079006 0.110000
v 0.257679 -0.076843 0.109511
v 0.262339 -0.074891 0.108090
v 0.266037 -0.073343 0.105878
v 0.268411 -0.072348 0.103090
v 0.269229 -0.072006 0.100000
v 0.269229 -0.072006 -0.100000
v 0.268411 -0.072348 -0.103090
v 0.266037 -0.073343 -0.105878
v 0.262339 -0.074891 -0.108090
v 0.257679 -0.076843 -0.109511
v 0.252514 -0.079006 -0.110000
v 0.182339 -0.079006 0.110000
v 0.184196 -0.076843 0.109511
v 0.185872 -0.074891 0.108090
v 0.187202 -0.073343 0.105878
v 0.188055 -0.072348 0.103090
v 0.188350 -0.072006 0.100000
v 0.188350 -0.072006 -0.100000
v 0.188055 -0.072348 -0.103090
v 0.187202 -0.073343 -0.105878
v 0.185872 -0.074891 -0.108090
v 0.184196 -0.076843 -0.109511
v 0.182339 -0.079006 -0.110000
v -0.076433 0.050556 0.110000
v -0.079523 0.052719 0.109511
v -0.082311 0.054670 0.108090
v -0.084523 0.056219 0.105878
v -0.085944 0.057213 0.103090
v -0.086433 0.057556 0.100000
v -0.086433 0.057556 -0.100000
v -0.085944 0.057213 -0.103090
v -0.084523 0.056219 -0.105878
v -0.082311 0.054670 -0.108090
v -0.079523 0.052719 -0.109511
v -0.076433 0.050556 -0.110000
v -0.076433 -0.241725 0.110000
v -0.079523 -0.243888 0.109511
v -0.082311 -0.245840 0.108090
v -0.084523 -0.247388 0.105878
v -0.085944 -0.248383 0.103090
v -0.086433 -0.248725 0.100000
v -0.086433 -0.248725 -0.100000
v -0.085944 -0.248383 -0.103090
v -0.084523 -0.247388 -0.105878
v -0.082311 -0.245840 -0.108090
v -0.079523 -0.243888 -0.109511
v -0.076433 -0.241725 -0.110000
v -0.002749 -0.241725 0.110000
v 0.000341 -0.243888 0.109511
v 0.003129 -0.245840 0.108090
v 0.005341 -0.247388 0.105878
v 0.006762 -0.248383 0.103090
v 0.007251 -0.248725 0.100000
v 0.007251 -0.248725 -0.100000
v 0.006762 -0.248383 -0.103090
v 0.005341 -0.247388 -0.105878
v 0.003129 -0.245840 -0.108090
v 0.000341 -0.243888 -0.109511
v -0.002749 -0.241725 -0.110000
v -0.002749 0.050556 0.110000
v 0.000341 0.052719 0.109511
v 0.003129 0.054670 0.108090
v 0.005341 0.056219 0.105878
v 0.006762 0.057213 0.103090
v 0.007251 0.057556 0.100000
v 0.007251 0.057556 -0.100000
v 0.006762 0.057213 -0.103090
v 0.005341 0.056219 -0.105878
v 0.003129 0.054670 -0.108090
v 0.000341 0.052719 -0.109511
v -0.002749 0.050556 -0.110000
vn -0.0000 -0.0000 -1.0000
vn -0.0000 -0.0000 1.0000
vn 0.1472 0.3595 0.9215
vn -0.0732 0.1195 0.9901
vn 0.0608 0.1703 0.9835
vn 0.2730 0.5981 0.7535
vn -0.1943 0.2723 0.9424
vn 0.3713 0.7638 0.5280
vn -0.3685 0.4411 0.8183
vn 0.4325 0.8600 0.2708
vn -0.5378 0.5741 0.6174
vn 0.4477 0.8915 0.0691
vn -0.6671 0.6647 0.3363
vn -0.7086 0.6998 -0.0904
vn 0.4477 0.8915 -0.0691
vn -0.6671 0.6647 -0.3363
vn 0.4325 0.8600 -0.2708
vn -0.5378 0.5741 -0.6174
vn 0.3713 0.7638 -0.5280
vn -0.3685 0.4411 -0.8183
vn 0.2730 0.5981 -0.7535
vn -0.1943 0.2723 -0.9424
vn 0.1472 0.3595 -0.9215
vn -0.0732 0.1195 -0.9901
vn 0.0608 0.1703 -0.9835
vn -0.0732 -0.1195 0.9901
vn -0.3685 -0.4411 0.8183
vn -0.5378 -0.5741 0.6174
vn -0.6671 -0.6647 0.3363
vn -0.7086 0.6998 0.0904
vn -0.7086 -0.6998 -0.0904
vn -0.6671 -0.6647 -0.3363
vn -0.5378 -0.5741 -0.6174
vn -0.3685 -0.4411 -0.8183
vn -0.0732 -0.1195 -0.9901
vn -0.1265 -0.2674 0.9552
vn -0.1943 -0.2723 0.9424
vn -0.2503 -0.5484 0.7979
vn -0.3498 -0.7480 0.5640
vn -0.4134 -0.8631 0.2901
vn -0.4386 -0.8958 0.0715
vn -0.7086 -0.6998 0.0904
vn -0.4386 -0.8958 -0.0715
vn -0.4134 -0.8631 -0.2901
vn -0.3498 -0.7480 -0.5640
vn -0.1943 -0.2723 -0.9424
vn -0.2503 -0.5484 -0.7979
vn -0.1265 -0.2674 -0.9552
vn -0.0608 -0.1703 0.9835
vn -0.0842 -0.1505 0.9850
vn -0.1472 -0.3595 0.9215
vn -0.2730 -0.5981 0.7535
vn -0.3713 -0.7638 0.5280
vn -0.4325 -0.8600 0.2708
vn -0.4477 -0.8915 -0.0691
vn -0.4325 -0.8600 -0.2708
vn -0.3713 -0.7638 -0.5280
vn -0.2730 -0.5981 -0.7535
vn -0.1472 -0.3595 -0.9215
vn -0.0608 -0.1703 -0.9835
vn -0.0842 -0.1505 -0.9850
vn 0.1467 -0.3600 0.9213
vn 0.2720 -0.5991 0.7531
vn 0.3697 -0.7649 0.5274
vn 0.4305 -0.8611 0.2704
vn 0.4456 -0.8926 0.0690
vn -0.4477 -0.8915 0.0691
vn 0.4456 -0.8926 -0.0690
vn 0.4305 -0.8611 -0.2704
vn 0.3697 -0.7649 -0.5274
vn 0.2720 -0.5991 -0.7531
vn 0.1467 -0.3600 -0.9213
vn 0.0682 0.0623 0.9957
vn 0.0607 -0.1707 0.9835
vn 0.1962 0.1527 0.9686
vn 0.3756 0.2403 0.8951
vn 0.5908 0.3232 0.7392
vn 0.8039 0.4004 0.4398
vn 0.8908 0.4356 0.1293
vn 0.8039 0.4004 -0.4398
vn 0.5908 0.3232 -0.7392
vn 0.3756 0.2403 -0.8951
vn 0.1962 0.1527 -0.9686
vn 0.0682 0.0623 -0.9957
vn 0.0607 -0.1707 -0.9835
vn 0.1265 0.2674 0.9552
vn 0.2503 0.5484 0.7979
vn 0.3498 0.7480 0.5640
vn 0.4134 0.8631 0.2901
vn 0.4386 0.8958 0.0715
vn 0.4386 0.8958 -0.0715
vn 0.8908 0.4356 -0.1293
vn 0.4134 0.8631 -0.2901
vn 0.3498 0.7480 -0.5640
vn 0.2503 0.5483 -0.7979
vn 0.1265 0.2674 -0.9552
vn 0.0842 0.1505 0.9850
vn 0.0842 0.1505 -0.9850
vn 0.1943 -0.2723 0.9424
vn 0.3685 -0.4411 0.8183
vn 0.5378 -0.5741 0.6174
vn 0.6671 -0.6647 0.3363
vn 0.7086 -0.6998 0.0904
vn 0.7086 -0.6998 -0.0904
vn 0.6671 -0.6647 -0.3363
vn 0.5378 -0.5741 -0.6174
vn 0.3685 -0.4411 -0.8183
vn 0.1943 -0.2723 -0.9424
vn 0.0732 -0.1195 -0.9901
vn 0.1943 0.2723 0.9424
vn 0.0732 -0.1195 0.9901
vn 0.3685 0.4411 0.8183
vn 0.5378 0.5741 0.6174
vn 0.6671 0.6647 0.3363
vn 0.7086 0.6998 0.0904
vn 0.7086 0.6998 -0.0904
vn 0.6671 0.6647 -0.3363
vn 0.5378 0.5741 -0.6174
vn 0.1943 0.2723 -0.9424
vn 0.0732 0.1195 -0.9901
vn 0.0732 0.1195 0.9901
vn 0.3685 0.4411 -0.8183
vt 0.957712 0.496259
vt 0.961120 0.448287
vt 0.969688 0.445698
vt 0.954161 0.432053
vt 0.949143 0.437763
vt 0.949143 0.498848
vt 0.124466 0.959833
vt 0.116680 0.915710
vt 0.124466 0.915710
vt 0.116680 0.959833
vt 0.955201 0.504171
vt 0.963282 0.501154
vt 0.942608 0.916387
vt 0.954585 0.966947
vt 0.946016 0.964358
vt 0.939057 0.980593
vt 0.934039 0.974883
vt 0.934039 0.913798
vt 0.125253 0.959833
vt 0.125252 0.915710
vt 0.133039 0.915710
vt 0.133039 0.959833
vt 0.940097 0.908474
vt 0.948179 0.911492
vt 0.252315 0.897528
vt 0.275149 0.902942
vt 0.251899 0.897837
vt 0.252721 0.897228
vt 0.275027 0.902730
vt 0.253117 0.896937
vt 0.274922 0.902539
vt 0.253507 0.896652
vt 0.274832 0.902363
vt 0.253899 0.896369
vt 0.274754 0.902202
vt 0.274180 0.897538
vt 0.270883 0.884443
vt 0.273923 0.897291
vt 0.270405 0.883790
vt 0.273674 0.897039
vt 0.269927 0.883130
vt 0.273428 0.896783
vt 0.269456 0.882463
vt 0.273183 0.896521
vt 0.268992 0.881790
vt 0.272940 0.896251
vt 0.268538 0.881110
vt 0.274886 0.896430
vt 0.274946 0.895825
vt 0.274942 0.895522
vt 0.274918 0.895213
vt 0.274690 0.902060
vt 0.273899 0.902714
vt 0.274552 0.901514
vt 0.275187 0.900355
vt 0.275798 0.899220
vt 0.276944 0.896985
vt 0.306234 0.911043
vt 0.274928 0.896127
vt 0.305669 0.910049
vt 0.305103 0.909059
vt 0.304536 0.908076
vt 0.303970 0.907108
vt 0.274876 0.894889
vt 0.277193 0.871894
vt 0.277203 0.873502
vt 0.277242 0.875108
vt 0.276384 0.898100
vt 0.277310 0.876713
vt 0.277406 0.878319
vt 0.303753 0.821346
vt 0.306795 0.912037
vt 0.303135 0.821702
vt 0.302547 0.822038
vt 0.301986 0.822355
vt 0.301448 0.822657
vt 0.286802 0.840134
vt 0.286790 0.840183
vt 0.286782 0.840244
vt 0.286775 0.840316
vt 0.286768 0.840398
vt 0.286761 0.840491
vt 0.277529 0.879926
vt 0.289611 0.812339
vt 0.289506 0.813040
vt 0.289411 0.813711
vt 0.289327 0.814364
vt 0.289257 0.815012
vt 0.300925 0.822936
vt 0.284049 0.834573
vt 0.283964 0.834983
vt 0.283885 0.835377
vt 0.283808 0.835760
vt 0.283735 0.836138
vt 0.271946 0.817380
vt 0.289728 0.811606
vt 0.271916 0.818289
vt 0.271902 0.819087
vt 0.271899 0.819806
vt 0.271908 0.820478
vt 0.271921 0.821127
vt 0.278597 0.835711
vt 0.278712 0.835891
vt 0.278826 0.836062
vt 0.278947 0.836230
vt 0.279077 0.836398
vt 0.283662 0.836513
vt 0.252504 0.810433
vt 0.253101 0.811575
vt 0.253687 0.812703
vt 0.254263 0.813804
vt 0.254828 0.814882
vt 0.279459 0.842822
vt 0.278474 0.835523
vt 0.279542 0.842546
vt 0.279610 0.842280
vt 0.279665 0.842024
vt 0.279709 0.841777
vt 0.251899 0.809302
vt 0.279740 0.841541
vt 0.961402 0.425519
vt 0.958349 0.367688
vt 0.956724 0.367585
vt 0.960020 0.427125
vt 0.955099 0.367553
vt 0.958599 0.428635
vt 0.953480 0.367602
vt 0.957152 0.430024
vt 0.951884 0.367734
vt 0.955696 0.431267
vt 0.950328 0.367953
vt 0.964106 0.422687
vt 0.964396 0.363097
vt 0.964090 0.422842
vt 0.964632 0.362820
vt 0.964014 0.422921
vt 0.964805 0.362551
vt 0.963891 0.422938
vt 0.964932 0.362286
vt 0.963740 0.422919
vt 0.965034 0.362020
vt 0.963582 0.422894
vt 0.965141 0.361746
vt 0.958068 0.422128
vt 0.962736 0.423842
vt 0.959619 0.421643
vt 0.961152 0.421090
vt 0.962653 0.420474
vt 0.964104 0.419802
vt 0.949487 0.417908
vt 0.949334 0.418123
vt 0.949240 0.418295
vt 0.949192 0.418434
vt 0.949168 0.418556
vt 0.949143 0.418679
vt 0.953532 0.366214
vt 0.956504 0.422546
vt 0.954912 0.365130
vt 0.956319 0.364131
vt 0.957739 0.363234
vt 0.959155 0.362454
vt 0.949143 0.351548
vt 0.949252 0.351438
vt 0.949424 0.351440
vt 0.949902 0.351678
vt 0.950167 0.351836
vt 0.952185 0.367366
vt 0.949646 0.351531
s 0
usemtl マテリアル
f 8/1/1 4/2/1 1/3/1
f 4/2/1 2/4/1 1/3/1
f 4/2/1 3/5/1 2/4/1
f 8/1/1 5/6/1 4/2/1
f 11/7/1 9/8/1 12/9/1
f 11/7/1 10/10/1 9/8/1
f 6/11/1 8/1/1 7/12/1
f 6/11/1 5/6/1 8/1/1
f 20/13/2 13/14/2 16/15/2
f 16/15/2 13/14/2 14/16/2
f 16/15/2 14/16/2 15/17/2
f 20/13/2 16/15/2 17/18/2
f 23/19/2 24/20/2 21/21/2
f 23/19/2 21/21/2 22/22/2
f 18/23/2 19/24/2 20/13/2
f 18/23/2 20/13/2 17/18/2
s 1
f 26/25/3 37/26/4 25/27/5
f 27/28/6 38/29/7 26/25/3
f 28/30/8 39/31/9 27/28/6
f 29/32/10 40/33/11 28/30/8
f 30/34/12 41/35/13 29/32/10
f 43/36/14 30/34/12 31/37/15
f 44/38/16 31/37/15 32/39/17
f 45/40/18 32/39/17 33/41/19
f 46/42/20 33/41/19 34/43/21
f 47/44/22 34/43/21 35/45/23
f 48/46/24 35/45/23 36/47/25
f 38/29/7 49/48/26 37/26/4
f 51/49/27 38/29/7 39/31/9
f 52/50/28 39/31/9 40/33/11
f 53/51/29 40/33/11 41/35/13
f 42/52/30 53/51/29 41/35/13
f 55/53/31 42/52/30 43/36/14
f 56/54/32 43/36/14 44/38/16
f 57/55/33 44/38/16 45/40/18
f 58/56/34 45/40/18 46/42/20
f 47/44/22 58/56/34 46/42/20
f 60/57/35 47/44/22 48/46/24
f 62/58/36 49/48/26 50/59/37
f 63/60/38 50/59/37 51/49/27
f 64/61/39 51/49/27 52/50/28
f 65/62/40 52/50/28 53/51/29
f 66/63/41 53/51/29 54/64/42
f 67/65/43 54/64/42 55/53/31
f 56/54/32 67/65/43 55/53/31
f 57/55/33 68/66/44 56/54/32
f 58/56/34 69/67/45 57/55/33
f 59/68/46 70/69/47 58/56/34
f 60/57/35 71/70/48 59/68/46
f 62/58/36 73/71/49 61/72/50
f 63/60/38 74/73/51 62/58/36
f 64/61/39 75/74/52 63/60/38
f 65/62/40 76/75/53 64/61/39
f 66/63/41 77/76/54 65/62/40
f 79/77/55 66/63/41 67/65/43
f 80/78/56 67/65/43 68/66/44
f 81/79/57 68/66/44 69/67/45
f 82/80/58 69/67/45 70/69/47
f 83/81/59 70/69/47 71/70/48
f 84/82/60 71/70/48 72/83/61
f 86/84/62 73/71/49 74/73/51
f 87/85/63 74/73/51 75/74/52
f 88/86/64 75/74/52 76/75/53
f 89/87/65 76/75/53 77/76/54
f 90/88/66 77/76/54 78/89/67
f 91/90/68 78/89/67 79/77/55
f 80/78/56 91/90/68 79/77/55
f 81/79/57 92/91/69 80/78/56
f 82/80/58 93/92/70 81/79/57
f 83/81/59 94/93/71 82/80/58
f 84/82/60 95/94/72 83/81/59
f 86/84/62 97/95/73 85/96/74
f 87/85/63 98/97/75 86/84/62
f 88/86/64 99/98/76 87/85/63
f 89/87/65 100/99/77 88/86/64
f 90/88/66 101/100/78 89/87/65
f 91/90/68 102/101/79 90/88/66
f 104/102/80 91/90/68 92/91/69
f 105/103/81 92/91/69 93/92/70
f 106/104/82 93/92/70 94/93/71
f 107/105/83 94/93/71 95/94/72
f 108/106/84 95/94/72 96/107/85
f 110/108/86 97/95/73 98/97/75
f 111/109/87 98/97/75 99/98/76
f 112/110/88 99/98/76 100/99/77
f 113/111/89 100/99/77 101/100/78
f 114/112/90 101/100/78 102/101/79
f 115/113/91 102/101/79 103/114/92
f 104/102/80 115/113/91 103/114/92
f 105/103/81 116/115/93 104/102/80
f 106/104/82 117/116/94 105/103/81
f 107/105/83 118/117/95 106/104/82
f 108/106/84 119/118/96 107/105/83
f 110/108/86 25/27/5 109/119/97
f 111/109/87 26/25/3 110/108/86
f 112/110/88 27/28/6 111/109/87
f 113/111/89 28/30/8 112/110/88
f 114/112/90 29/32/10 113/111/89
f 31/37/15 114/112/90 115/113/91
f 32/39/17 115/113/91 116/115/93
f 33/41/19 116/115/93 117/116/94
f 34/43/21 117/116/94 118/117/95
f 35/45/23 118/117/95 119/118/96
f 36/47/25 119/118/96 120/120/98
f 134/121/37 121/122/4 122/123/7
f 135/124/27 122/123/7 123/125/9
f 136/126/28 123/125/9 124/127/11
f 137/128/29 124/127/11 125/129/13
f 138/130/42 125/129/13 126/131/30
f 139/132/31 126/131/30 127/133/14
f 140/134/32 127/133/14 128/135/16
f 141/136/33 128/135/16 129/137/18
f 142/138/34 129/137/18 130/139/20
f 143/140/46 130/139/20 131/141/22
f 144/142/35 131/141/22 132/143/24
f 146/144/99 133/145/26 134/121/37
f 147/146/100 134/121/37 135/124/27
f 148/147/101 135/124/27 136/126/28
f 149/148/102 136/126/28 137/128/29
f 150/149/103 137/128/29 138/130/42
f 151/150/104 138/130/42 139/132/31
f 152/151/105 139/132/31 140/134/32
f 153/152/106 140/134/32 141/136/33
f 154/153/107 141/136/33 142/138/34
f 155/154/108 142/138/34 143/140/46
f 156/155/109 143/140/46 144/142/35
f 158/156/110 145/157/111 146/144/99
f 159/158/112 146/144/99 147/146/100
f 160/159/113 147/146/100 148/147/101
f 161/160/114 148/147/101 149/148/102
f 162/161/115 149/148/102 150/149/103
f 163/162/116 150/149/103 151/150/104
f 164/163/117 151/150/104 152/151/105
f 153/152/106 164/163/117 152/151/105
f 154/153/107 165/164/118 153/152/106
f 167/165/119 154/153/107 155/154/108
f 168/166/120 155/154/108 156/155/109
f 122/123/7 157/167/121 158/156/110
f 123/125/9 158/156/110 159/158/112
f 124/127/11 159/158/112 160/159/113
f 125/129/13 160/159/113 161/160/114
f 126/131/30 161/160/114 162/161/115
f 127/133/14 162/161/115 163/162/116
f 128/135/16 163/162/116 164/163/117
f 165/164/118 128/135/16 164/163/117
f 130/139/20 165/164/118 166/168/122
f 131/141/22 166/168/122 167/165/119
f 168/166/120 131/141/22 167/165/119
f 26/25/3 38/29/7 37/26/4
f 27/28/6 39/31/9 38/29/7
f 28/30/8 40/33/11 39/31/9
f 29/32/10 41/35/13 40/33/11
f 30/34/12 42/52/30 41/35/13
f 43/36/14 42/52/30 30/34/12
f 44/38/16 43/36/14 31/37/15
f 45/40/18 44/38/16 32/39/17
f 46/42/20 45/40/18 33/41/19
f 47/44/22 46/42/20 34/43/21
f 48/46/24 47/44/22 35/45/23
f 38/29/7 50/59/37 49/48/26
f 51/49/27 50/59/37 38/29/7
f 52/50/28 51/49/27 39/31/9
f 53/51/29 52/50/28 40/33/11
f 42/52/30 54/64/42 53/51/29
f 55/53/31 54/64/42 42/52/30
f 56/54/32 55/53/31 43/36/14
f 57/55/33 56/54/32 44/38/16
f 58/56/34 57/55/33 45/40/18
f 47/44/22 59/68/46 58/56/34
f 60/57/35 59/68/46 47/44/22
f 62/58/36 61/72/50 49/48/26
f 63/60/38 62/58/36 50/59/37
f 64/61/39 63/60/38 51/49/27
f 65/62/40 64/61/39 52/50/28
f 66/63/41 65/62/40 53/51/29
f 67/65/43 66/63/41 54/64/42
f 56/54/32 68/66/44 67/65/43
f 57/55/33 69/67/45 68/66/44
f 58/56/34 70/69/47 69/67/45
f 59/68/46 71/70/48 70/69/47
f 60/57/35 72/83/61 71/70/48
f 62/58/36 74/73/51 73/71/49
f 63/60/38 75/74/52 74/73/51
f 64/61/39 76/75/53 75/74/52
f 65/62/40 77/76/54 76/75/53
f 66/63/41 78/89/67 77/76/54
f 79/77/55 78/89/67 66/63/41
f 80/78/56 79/77/55 67/65/43
f 81/79/57 80/78/56 68/66/44
f 82/80/58 81/79/57 69/67/45
f 83/81/59 82/80/58 70/69/47
f 84/82/60 83/81/59 71/70/48
f 86/84/62 85/96/74 73/71/49
f 87/85/63 86/84/62 74/73/51
f 88/86/64 87/85/63 75/74/52
f 89/87/65 88/86/64 76/75/53
f 90/88/66 89/87/65 77/76/54
f 91/90/68 90/88/66 78/89/67
f 80/78/56 92/91/69 91/90/68
f 81/79/57 93/92/70 92/91/69
f 82/80/58 94/93/71 93/92/70
f 83/81/59 95/94/72 94/93/71
f 84/82/60 96/107/85 95/94/72
f 86/84/62 98/97/75 97/95/73
f 87/85/63 99/98/76 98/97/75
f 88/86/64 100/99/77 99/98/76
f 89/87/65 101/100/78 100/99/77
f 90/88/66 102/101/79 101/100/78
f 91/90/68 103/114/92 102/101/79
f 104/102/80 103/114/92 91/90/68
f 105/103/81 104/102/80 92/91/69
f 106/104/82 105/103/81 93/92/70
f 107/105/83 106/104/82 94/93/71
f 108/106/84 107/105/83 95/94/72
f 110/108/86 109/119/97 97/95/73
f 111/109/87 110/108/86 98/97/75
f 112/110/88 111/109/87 99/98/76
f 113/111/89 112/110/88 100/99/77
f 114/112/90 113/111/89 101/100/78
f 115/113/91 114/112/90 102/101/79
f 104/102/80 116/115/93 115/113/91
f 105/103/81 117/116/94 116/115/93
f 106/104/82 118/117/95 117/116/94
f 107/105/83 119/118/96 118/117/95
f 108/106/84 120/120/98 119/118/96
f 110/108/86 26/25/3 25/27/5
f 111/109/87 27/28/6 26/25/3
f 112/110/88 28/30/8 27/28/6
f 113/111/89 29/32/10 28/30/8
f 114/112/90 30/34/12 29/32/10
f 31/37/15 30/34/12 114/112/90
f 32/39/17 31/37/15 115/113/91
f 33/41/19 32/39/17 116/115/93
f 34/43/21 33/41/19 117/116/94
f 35/45/23 34/43/21 118/117/95
f 36/47/25 35/45/23 119/118/96
f 134/121/37 133/145/26 121/122/4
f 135/124/27 134/121/37 122/123/7
f 136/126/28 135/124/27 123/125/9
f 137/128/29 136/126/28 124/127/11
f 138/130/42 137/128/29 125/129/13
f 139/132/31 138/130/42 126/131/30
f 140/134/32 139/132/31 127/133/14
f 141/136/33 140/134/32 128/135/16
f 142/138/34 141/136/33 129/137/18
f 143/140/46 142/138/34 130/139/20
f 144/142/35 143/140/46 131/141/22
f 146/144/99 145/157/111 133/145/26
f 147/146/100 146/144/99 134/121/37
f 148/147/101 147/146/100 135/124/27
f 149/148/102 148/147/101 136/126/28
f 150/149/103 149/148/102 137/128/29
f 151/150/104 150/149/103 138/130/42
f 152/151/105 151/150/104 139/132/31
f 153/152/106 152/151/105 140/134/32
f 154/153/107 153/152/106 141/136/33
f 155/154/108 154/153/107 142/138/34
f 156/155/109 155/154/108 143/140/46
f 158/156/110 157/167/121 145/157/111
f 159/158/112 158/156/110 146/144/99
f 160/159/113 159/158/112 147/146/100
f 161/160/114 160/159/113 148/147/101
f 162/161/115 161/160/114 149/148/102
f 163/162/116 162/161/115 150/149/103
f 164/163/117 163/162/116 151/150/104
f 153/152/106 165/164/118 164/163/117
f 154/153/107 166/168/122 165/164/118
f 167/165/119 166/168/122 154/153/107
f 168/166/120 167/165/119 155/154/108
f 122/123/7 121/122/4 157/167/121
f 123/125/9 122/123/7 158/156/110
f 124/127/11 123/125/9 159/158/112
f 125/129/13 124/127/11 160/159/113
f 126/131/30 125/129/13 161/160/114
f 127/133/14 126/131/30 162/161/115
f 128/135/16 127/133/14 163/162/116
f 165/164/118 129/137/18 128/135/16
f 130/139/20 129/137/18 165/164/118
f 131/141/22 130/139/20 166/168/122
f 168/166/120 132/143/24 131/141/22
